<svg xmlns="http://www.w3.org/2000/svg" viewBox="0 0 1600 900" width="1600" height="900"><title>5. Paws on the zipper</title><defs><radialGradient id="p05-fireglow"><stop offset="0" stop-color="#ffb347" stop-opacity="0.38"/><stop offset="1" stop-color="#ffb347" stop-opacity="0"/></radialGradient><radialGradient id="p05-bulb"><stop offset="0" stop-color="#ffd98a" stop-opacity="0.6"/><stop offset="1" stop-color="#ffd98a" stop-opacity="0"/></radialGradient></defs><rect x="0" y="0" width="1600" height="900" fill="#2b474c"/><ellipse cx="1225.5" cy="423.71" rx="999" ry="389.98" fill="#36463f"/><ellipse cx="1225.5" cy="389.3" rx="1295" ry="802.9" fill="url(#p05-fireglow)"/><path d="M 984.761 370.582 L 990.604 353.056 M 996.446 370.582 L 998.393 347.214 M 1008.13 370.582 L 1004.235 355.004" fill="none" stroke="#40665f" stroke-width="4.284" stroke-linecap="round"/><path d="M 1251.532 414.923 L 1257.374 397.396 M 1263.217 414.923 L 1265.164 391.554 M 1274.901 414.923 L 1271.006 399.344" fill="none" stroke="#40665f" stroke-width="4.284" stroke-linecap="round"/><path d="M 927.77 824.469 L 933.613 806.943 M 939.455 824.469 L 941.402 801.101 M 951.139 824.469 L 947.244 808.891" fill="none" stroke="#40665f" stroke-width="4.284" stroke-linecap="round"/><path d="M 1305.803 499.88 L 1311.645 482.354 M 1317.487 499.88 L 1319.434 476.512 M 1329.171 499.88 L 1325.276 484.301" fill="none" stroke="#40665f" stroke-width="4.284" stroke-linecap="round"/><path d="M 1212.725 535.461 L 1218.567 517.935 M 1224.409 535.461 L 1226.356 512.093 M 1236.093 535.461 L 1232.198 519.883" fill="none" stroke="#40665f" stroke-width="4.284" stroke-linecap="round"/><path d="M 1499.025 190.175 L 1504.868 172.649 M 1510.71 190.175 L 1512.657 166.806 M 1522.394 190.175 L 1518.499 174.596" fill="none" stroke="#40665f" stroke-width="4.284" stroke-linecap="round"/><path d="M 271.754 892.616 L 277.596 875.09 M 283.438 892.616 L 285.386 869.248 M 295.122 892.616 L 291.228 877.037" fill="none" stroke="#40665f" stroke-width="4.284" stroke-linecap="round"/><path d="M 596.712 199.462 L 602.554 181.935 M 608.396 199.462 L 610.344 176.093 M 620.081 199.462 L 616.186 183.883" fill="none" stroke="#40665f" stroke-width="4.284" stroke-linecap="round"/><path d="M 1572.503 863.167 L 1578.346 845.641 M 1584.188 863.167 L 1586.135 839.798 M 1595.872 863.167 L 1591.977 847.588" fill="none" stroke="#40665f" stroke-width="4.284" stroke-linecap="round"/><path d="M 44.896 794.426 L 50.738 776.9 M 56.581 794.426 L 58.528 771.058 M 68.265 794.426 L 64.37 778.847" fill="none" stroke="#40665f" stroke-width="4.284" stroke-linecap="round"/><path d="M 1499.368 840.484 L 1505.21 822.957 M 1511.052 840.484 L 1512.999 817.115 M 1522.736 840.484 L 1518.842 824.905" fill="none" stroke="#40665f" stroke-width="4.284" stroke-linecap="round"/><path d="M 550.734 902.372 L 556.576 884.846 M 562.418 902.372 L 564.366 879.003 M 574.102 902.372 L 570.208 886.793" fill="none" stroke="#40665f" stroke-width="4.284" stroke-linecap="round"/><path d="M 1128.37 644.734 L 1134.212 627.207 M 1140.054 644.734 L 1142.001 621.365 M 1151.738 644.734 L 1147.843 629.155" fill="none" stroke="#40665f" stroke-width="4.284" stroke-linecap="round"/><path d="M 501.138 571.907 L 506.98 554.381 M 512.822 571.907 L 514.769 548.539 M 524.506 571.907 L 520.611 556.328" fill="none" stroke="#40665f" stroke-width="4.284" stroke-linecap="round"/><path d="M 815.322 741.136 L 821.165 723.61 M 827.007 741.136 L 828.954 717.768 M 838.691 741.136 L 834.796 725.557" fill="none" stroke="#40665f" stroke-width="4.284" stroke-linecap="round"/><path d="M 927.729 817.955 L 933.571 800.428 M 939.413 817.955 L 941.361 794.586 M 951.097 817.955 L 947.203 802.376" fill="none" stroke="#40665f" stroke-width="4.284" stroke-linecap="round"/><path d="M 256.783 560.652 L 262.625 543.126 M 268.467 560.652 L 270.414 537.284 M 280.151 560.652 L 276.256 545.073" fill="none" stroke="#40665f" stroke-width="4.284" stroke-linecap="round"/><path d="M 934.511 903.635 L 940.353 886.109 M 946.195 903.635 L 948.143 880.267 M 957.879 903.635 L 953.985 888.056" fill="none" stroke="#40665f" stroke-width="4.284" stroke-linecap="round"/><path d="M 381.496 541.001 L 387.338 523.474 M 393.181 541.001 L 395.128 517.632 M 404.865 541.001 L 400.97 525.422" fill="none" stroke="#40665f" stroke-width="4.284" stroke-linecap="round"/><path d="M 325.753 819.156 L 331.596 801.63 M 337.438 819.156 L 339.385 795.788 M 349.122 819.156 L 345.227 803.577" fill="none" stroke="#40665f" stroke-width="4.284" stroke-linecap="round"/><path d="M 295.252 742.712 L 301.094 725.186 M 306.936 742.712 L 308.883 719.344 M 318.62 742.712 L 314.725 727.133" fill="none" stroke="#40665f" stroke-width="4.284" stroke-linecap="round"/><path d="M 118.843 26.889 L 124.685 9.362 M 130.527 26.889 L 132.475 3.52 M 142.211 26.889 L 138.317 11.31" fill="none" stroke="#40665f" stroke-width="4.284" stroke-linecap="round"/><path d="M 701.629 743.385 L 707.471 725.858 M 713.313 743.385 L 715.26 720.016 M 724.997 743.385 L 721.102 727.806" fill="none" stroke="#40665f" stroke-width="4.284" stroke-linecap="round"/><path d="M 621.237 385.102 L 627.079 367.575 M 632.921 385.102 L 634.869 361.733 M 644.606 385.102 L 640.711 369.523" fill="none" stroke="#40665f" stroke-width="4.284" stroke-linecap="round"/><path d="M 1391.577 741.546 L 1397.419 724.02 M 1403.261 741.546 L 1405.209 718.178 M 1414.945 741.546 L 1411.051 725.967" fill="none" stroke="#40665f" stroke-width="4.284" stroke-linecap="round"/><path d="M 1455.768 705.329 L 1461.61 687.803 M 1467.452 705.329 L 1469.4 681.961 M 1479.136 705.329 L 1475.242 689.75" fill="none" stroke="#40665f" stroke-width="4.284" stroke-linecap="round"/><path d="M 420.187 736.919 L 426.029 719.393 M 431.871 736.919 L 433.818 713.551 M 443.555 736.919 L 439.66 721.34" fill="none" stroke="#40665f" stroke-width="4.284" stroke-linecap="round"/><path d="M 1293.301 633.603 L 1299.143 616.077 M 1304.985 633.603 L 1306.932 610.234 M 1316.669 633.603 L 1312.774 618.024" fill="none" stroke="#40665f" stroke-width="4.284" stroke-linecap="round"/><path d="M 204.532 642.076 L 210.374 624.55 M 216.216 642.076 L 218.164 618.708 M 227.9 642.076 L 224.006 626.497" fill="none" stroke="#40665f" stroke-width="4.284" stroke-linecap="round"/><rect x="-1036.125" y="-785.08" width="83.25" height="327.6" fill="#2e2629"/><circle cx="-994.5" cy="-962.68" r="277.5" fill="#264c52"/><circle cx="-1198" cy="-859.08" r="212.75" fill="#264c52"/><circle cx="-791" cy="-873.88" r="222" fill="#264c52"/><circle cx="-957.5" cy="-1125.48" r="212.75" fill="#264c52"/><circle cx="-1105.5" cy="-1066.28" r="185" fill="#264c52"/><rect x="-555.125" y="-727.73" width="83.25" height="327.6" fill="#2e2629"/><circle cx="-513.5" cy="-905.33" r="277.5" fill="#1f3f47"/><circle cx="-717" cy="-801.73" r="212.75" fill="#1f3f47"/><circle cx="-310" cy="-816.53" r="222" fill="#1f3f47"/><circle cx="-476.5" cy="-1068.13" r="212.75" fill="#1f3f47"/><circle cx="-624.5" cy="-1008.93" r="185" fill="#1f3f47"/><rect x="-37.125" y="-785.08" width="83.25" height="327.6" fill="#2e2629"/><circle cx="4.5" cy="-962.68" r="277.5" fill="#264c52"/><circle cx="-199" cy="-859.08" r="212.75" fill="#264c52"/><circle cx="208" cy="-873.88" r="222" fill="#264c52"/><circle cx="41.5" cy="-1125.48" r="212.75" fill="#264c52"/><circle cx="-106.5" cy="-1066.28" r="185" fill="#264c52"/><rect x="462.375" y="-727.73" width="83.25" height="327.6" fill="#2e2629"/><circle cx="504" cy="-905.33" r="277.5" fill="#1f3f47"/><circle cx="300.5" cy="-801.73" r="212.75" fill="#1f3f47"/><circle cx="707.5" cy="-816.53" r="222" fill="#1f3f47"/><circle cx="541" cy="-1068.13" r="212.75" fill="#1f3f47"/><circle cx="393" cy="-1008.93" r="185" fill="#1f3f47"/><rect x="980.375" y="-785.08" width="83.25" height="327.6" fill="#2e2629"/><circle cx="1022" cy="-962.68" r="277.5" fill="#264c52"/><circle cx="818.5" cy="-859.08" r="212.75" fill="#264c52"/><circle cx="1225.5" cy="-873.88" r="222" fill="#264c52"/><circle cx="1059" cy="-1125.48" r="212.75" fill="#264c52"/><circle cx="911" cy="-1066.28" r="185" fill="#264c52"/><rect x="1516.875" y="-727.73" width="83.25" height="327.6" fill="#2e2629"/><circle cx="1558.5" cy="-905.33" r="277.5" fill="#1f3f47"/><circle cx="1355" cy="-801.73" r="212.75" fill="#1f3f47"/><circle cx="1762" cy="-816.53" r="222" fill="#1f3f47"/><circle cx="1595.5" cy="-1068.13" r="212.75" fill="#1f3f47"/><circle cx="1447.5" cy="-1008.93" r="185" fill="#1f3f47"/><rect x="2034.875" y="-785.08" width="83.25" height="327.6" fill="#2e2629"/><circle cx="2076.5" cy="-962.68" r="277.5" fill="#264c52"/><circle cx="1873" cy="-859.08" r="212.75" fill="#264c52"/><circle cx="2280" cy="-873.88" r="222" fill="#264c52"/><circle cx="2113.5" cy="-1125.48" r="212.75" fill="#264c52"/><circle cx="1965.5" cy="-1066.28" r="185" fill="#264c52"/><rect x="2552.875" y="-727.73" width="83.25" height="327.6" fill="#2e2629"/><circle cx="2594.5" cy="-905.33" r="277.5" fill="#1f3f47"/><circle cx="2391" cy="-801.73" r="212.75" fill="#1f3f47"/><circle cx="2798" cy="-816.53" r="222" fill="#1f3f47"/><circle cx="2631.5" cy="-1068.13" r="212.75" fill="#1f3f47"/><circle cx="2483.5" cy="-1008.93" r="185" fill="#1f3f47"/><rect x="3070.875" y="-785.08" width="83.25" height="327.6" fill="#2e2629"/><circle cx="3112.5" cy="-962.68" r="277.5" fill="#264c52"/><circle cx="2909" cy="-859.08" r="212.75" fill="#264c52"/><circle cx="3316" cy="-873.88" r="222" fill="#264c52"/><circle cx="3149.5" cy="-1125.48" r="212.75" fill="#264c52"/><circle cx="3001.5" cy="-1066.28" r="185" fill="#264c52"/><rect x="3551.875" y="-727.73" width="83.25" height="327.6" fill="#2e2629"/><circle cx="3593.5" cy="-905.33" r="277.5" fill="#1f3f47"/><circle cx="3390" cy="-801.73" r="212.75" fill="#1f3f47"/><circle cx="3797" cy="-816.53" r="222" fill="#1f3f47"/><circle cx="3630.5" cy="-1068.13" r="212.75" fill="#1f3f47"/><circle cx="3482.5" cy="-1008.93" r="185" fill="#1f3f47"/><ellipse cx="1521.5" cy="-264.49" rx="481" ry="47.36" fill="#0b1018" opacity="0.45"/><path d="M 1096 -308.89 L 1096 -390.29 L 1160.75 -474.65 L 1688 -474.65 L 1817.5 -405.09 L 1947 -390.29 L 1956.25 -308.89 Z" fill="#2f8f8a" stroke="#151b26" stroke-width="5.55" stroke-linejoin="round"/><path d="M 1179.25 -405.09 L 1197.75 -459.85 L 1382.75 -459.85 L 1382.75 -405.09 Z" fill="#9fc4d4" stroke="#151b26" stroke-width="5.55" stroke-linejoin="round"/><path d="M 1410.5 -405.09 L 1410.5 -459.85 L 1595.5 -459.85 L 1595.5 -405.09 Z" fill="#9fc4d4" stroke="#151b26" stroke-width="5.55" stroke-linejoin="round"/><path d="M 1623.25 -405.09 L 1623.25 -459.85 L 1678.75 -459.85 L 1780.5 -405.09 Z" fill="#9fc4d4" stroke="#151b26" stroke-width="5.55" stroke-linejoin="round"/><path d="M 1105.25 -338.49 L 1105.25 -379.93 L 1799 -379.93 L 1799 -338.49 Z" fill="#9a6b3c" stroke="#151b26" stroke-width="5.55" stroke-linejoin="round"/><ellipse cx="1253.25" cy="-308.89" rx="66.6" ry="53.28" fill="#1c1f26" stroke="#151b26" stroke-width="5.55" stroke-linejoin="round"/><ellipse cx="1253.25" cy="-308.89" rx="27.75" ry="22.2" fill="#9aa0a8" stroke="#151b26" stroke-width="5.55" stroke-linejoin="round"/><ellipse cx="1789.75" cy="-308.89" rx="66.6" ry="53.28" fill="#1c1f26" stroke="#151b26" stroke-width="5.55" stroke-linejoin="round"/><ellipse cx="1789.75" cy="-308.89" rx="27.75" ry="22.2" fill="#9aa0a8" stroke="#151b26" stroke-width="5.55" stroke-linejoin="round"/><ellipse cx="1947" cy="-362.17" rx="16.65" ry="17.76" fill="#fff4c4" stroke="#151b26" stroke-width="5.55" stroke-linejoin="round"/><rect x="1073.8" y="-375.49" width="11.1" height="29.6" fill="#f0a24a" stroke="#151b26" stroke-width="5.55" stroke-linejoin="round"/><line x1="-365.5" y1="-537.92" x2="-365.5" y2="-138.32" stroke="#151b26" stroke-width="9.25" stroke-linecap="round"/><line x1="2816.5" y1="-537.92" x2="2816.5" y2="-138.32" stroke="#151b26" stroke-width="9.25" stroke-linecap="round"/><path d="M -365.5 -537.92 Q 1225.5 -352.92 2816.5 -537.92" fill="none" stroke="#101722" stroke-width="3.7"/><circle cx="-188.722" cy="-509.256" r="31.45" fill="url(#p05-bulb)"/><circle cx="-188.722" cy="-509.256" r="9.25" fill="#ffd98a"/><circle cx="-11.944" cy="-492.127" r="31.45" fill="url(#p05-bulb)"/><circle cx="-11.944" cy="-492.127" r="9.25" fill="#ffd98a"/><circle cx="164.833" cy="-477.281" r="31.45" fill="url(#p05-bulb)"/><circle cx="164.833" cy="-477.281" r="9.25" fill="#ffd98a"/><circle cx="341.611" cy="-464.719" r="31.45" fill="url(#p05-bulb)"/><circle cx="341.611" cy="-464.719" r="9.25" fill="#ffd98a"/><circle cx="518.389" cy="-454.442" r="31.45" fill="url(#p05-bulb)"/><circle cx="518.389" cy="-454.442" r="9.25" fill="#ffd98a"/><circle cx="695.167" cy="-446.448" r="31.45" fill="url(#p05-bulb)"/><circle cx="695.167" cy="-446.448" r="9.25" fill="#ffd98a"/><circle cx="871.944" cy="-440.738" r="31.45" fill="url(#p05-bulb)"/><circle cx="871.944" cy="-440.738" r="9.25" fill="#ffd98a"/><circle cx="1048.722" cy="-437.312" r="31.45" fill="url(#p05-bulb)"/><circle cx="1048.722" cy="-437.312" r="9.25" fill="#ffd98a"/><circle cx="1225.5" cy="-436.17" r="31.45" fill="url(#p05-bulb)"/><circle cx="1225.5" cy="-436.17" r="9.25" fill="#ffd98a"/><circle cx="1402.278" cy="-437.312" r="31.45" fill="url(#p05-bulb)"/><circle cx="1402.278" cy="-437.312" r="9.25" fill="#ffd98a"/><circle cx="1579.056" cy="-440.738" r="31.45" fill="url(#p05-bulb)"/><circle cx="1579.056" cy="-440.738" r="9.25" fill="#ffd98a"/><circle cx="1755.833" cy="-446.448" r="31.45" fill="url(#p05-bulb)"/><circle cx="1755.833" cy="-446.448" r="9.25" fill="#ffd98a"/><circle cx="1932.611" cy="-454.442" r="31.45" fill="url(#p05-bulb)"/><circle cx="1932.611" cy="-454.442" r="9.25" fill="#ffd98a"/><circle cx="2109.389" cy="-464.719" r="31.45" fill="url(#p05-bulb)"/><circle cx="2109.389" cy="-464.719" r="9.25" fill="#ffd98a"/><circle cx="2286.167" cy="-477.281" r="31.45" fill="url(#p05-bulb)"/><circle cx="2286.167" cy="-477.281" r="9.25" fill="#ffd98a"/><circle cx="2462.944" cy="-492.127" r="31.45" fill="url(#p05-bulb)"/><circle cx="2462.944" cy="-492.127" r="9.25" fill="#ffd98a"/><circle cx="2639.722" cy="-509.256" r="31.45" fill="url(#p05-bulb)"/><circle cx="2639.722" cy="-509.256" r="9.25" fill="#ffd98a"/><ellipse cx="2335.5" cy="88.86" rx="351.5" ry="83.25" fill="#0b1018" opacity="0.4"/><polygon points="2224.5,-164.59 2419.49,-284.1 2632.24,-39.9 2437.25,79.61" fill="#9a7748" stroke="#151b26" stroke-width="5.55" stroke-linejoin="round"/><polygon points="2011.75,79.61 2224.5,-164.59 2437.25,79.61" fill="#c9a26b" stroke="#151b26" stroke-width="5.55" stroke-linejoin="round"/><polygon points="2146.8,79.61 2224.5,-127.59 2302.2,79.61" fill="#5b4630" stroke="#151b26" stroke-width="5.55" stroke-linejoin="round"/><line x1="2215.25" y1="-146.09" x2="1845.25" y2="107.36" stroke="#d8cfb5" stroke-width="2.22" stroke-linecap="round"/><line x1="1845.25" y1="107.36" x2="1845.25" y2="88.86" stroke="#151b26" stroke-width="3.7" stroke-linecap="round"/><line x1="2233.75" y1="-146.09" x2="2603.75" y2="107.36" stroke="#d8cfb5" stroke-width="2.22" stroke-linecap="round"/><line x1="2603.75" y1="107.36" x2="2603.75" y2="88.86" stroke="#151b26" stroke-width="3.7" stroke-linecap="round"/><ellipse cx="578" cy="119.57" rx="74" ry="22.2" fill="#0b1018" opacity="0.45"/><line x1="549.51" y1="-4.38" x2="537.3" y2="114.02" stroke="#151b26" stroke-width="7.4" stroke-linecap="round"/><line x1="578" y1="-4.38" x2="578" y2="114.02" stroke="#151b26" stroke-width="7.4" stroke-linecap="round"/><line x1="606.49" y1="-4.38" x2="618.7" y2="114.02" stroke="#151b26" stroke-width="7.4" stroke-linecap="round"/><path d="M 515.1 -4.38 A 62.9 44.4 0 0 0 640.9 -4.38 Z" fill="#30333b" stroke="#151b26" stroke-width="5.55" stroke-linejoin="round"/><ellipse cx="578" cy="-4.38" rx="62.9" ry="18.5" fill="#454852" stroke="#151b26" stroke-width="5.55" stroke-linejoin="round"/><line x1="537.3" y1="-6.97" x2="566.9" y2="-10.67" stroke="#a5603e" stroke-width="11.1" stroke-linecap="round"/><line x1="563.2" y1="-4.38" x2="592.8" y2="-8.08" stroke="#a5603e" stroke-width="11.1" stroke-linecap="round"/><line x1="589.1" y1="-1.79" x2="618.7" y2="-5.49" stroke="#a5603e" stroke-width="11.1" stroke-linecap="round"/><path d="M 564.125 -22.88 q -14.8 -37 0 -74 q 14.8 -37 0 -74" fill="none" stroke="#f2efe6" stroke-width="4.625" stroke-linecap="round" opacity="0.45"/><path d="M 591.875 -22.88 q -14.8 -37 0 -74 q 14.8 -37 0 -74" fill="none" stroke="#f2efe6" stroke-width="4.625" stroke-linecap="round" opacity="0.45"/><g transform="translate(957.25 205.78) scale(1.184 1.184)"><ellipse cx="0" cy="2" rx="34" ry="8" fill="#0b1018" opacity="0.45"/><path d="M -13.4 -88 L -35.4 -49.895 L -29.276 -6.323" fill="none" stroke="#151b26" stroke-width="26.068" stroke-linecap="round" stroke-linejoin="round"/><path d="M -13.4 -88 L -35.4 -49.895 L -29.276 -6.323" fill="none" stroke="#3f5a86" stroke-width="21" stroke-linecap="round" stroke-linejoin="round"/><ellipse cx="-33.276" cy="-4.323" rx="12" ry="7" fill="#2a2526" stroke="#151b26" stroke-width="2.534" stroke-linejoin="round"/><path d="M 8.6 -88 L 13.199 -44.241 L 13.199 -0.241" fill="none" stroke="#151b26" stroke-width="26.068" stroke-linecap="round" stroke-linejoin="round"/><path d="M 8.6 -88 L 13.199 -44.241 L 13.199 -0.241" fill="none" stroke="#3f5a86" stroke-width="21" stroke-linecap="round" stroke-linejoin="round"/><ellipse cx="17.199" cy="1.759" rx="12" ry="7" fill="#2a2526" stroke="#151b26" stroke-width="2.534" stroke-linejoin="round"/><path d="M -4.8 -88 L -8 -146" fill="none" stroke="#151b26" stroke-width="57.068" stroke-linecap="round"/><path d="M -4.8 -88 L -8 -146" fill="none" stroke="#e48a6a" stroke-width="52" stroke-linecap="round"/><path d="M -32 -144 L -65.814 -147.554 L -89.454 -166.024" fill="none" stroke="#151b26" stroke-width="20.068" stroke-linecap="round" stroke-linejoin="round"/><path d="M -32 -144 L -65.814 -147.554 L -89.454 -166.024" fill="none" stroke="#e48a6a" stroke-width="15" stroke-linecap="round" stroke-linejoin="round"/><circle cx="-89.454" cy="-166.024" r="7.5" fill="#e6b48f" stroke="#151b26" stroke-width="2.534" stroke-linejoin="round"/><path d="M 16 -144 L 33 -173.445 L 29.864 -203.281" fill="none" stroke="#151b26" stroke-width="20.068" stroke-linecap="round" stroke-linejoin="round"/><path d="M 16 -144 L 33 -173.445 L 29.864 -203.281" fill="none" stroke="#e48a6a" stroke-width="15" stroke-linecap="round" stroke-linejoin="round"/><circle cx="29.864" cy="-203.281" r="7.5" fill="#e6b48f" stroke="#151b26" stroke-width="2.534" stroke-linejoin="round"/><circle cx="-8.8" cy="-178" r="23" fill="#e6b48f" stroke="#151b26" stroke-width="2.534" stroke-linejoin="round"/><path d="M -31.8 -180 Q -30.8 -206 -8.8 -204 Q 13.2 -206 14.2 -180 Q -0.8 -192 -31.8 -180 Z" fill="#5a3d33" stroke="#151b26" stroke-width="2.534" stroke-linejoin="round"/><path d="M -20.8 -180 Q -16.8 -184 -12.8 -180" fill="none" stroke="#151b26" stroke-width="2.4"/><path d="M -4.8 -180 Q -0.8 -184 3.2 -180" fill="none" stroke="#151b26" stroke-width="2.4"/><path d="M -16.8 -171 Q -8.8 -160 -0.8 -171 Z" fill="#151b26"/></g><g transform="translate(1456.75 222.985) scale(1.184 1.184)"><ellipse cx="0" cy="2" rx="34" ry="8" fill="#0b1018" opacity="0.45"/><path d="M -8.6 -88 L -14.724 -44.428 L -14.724 -0.428" fill="none" stroke="#151b26" stroke-width="26.068" stroke-linecap="round" stroke-linejoin="round"/><path d="M -8.6 -88 L -14.724 -44.428 L -14.724 -0.428" fill="none" stroke="#3f5a86" stroke-width="21" stroke-linecap="round" stroke-linejoin="round"/><ellipse cx="-18.724" cy="1.572" rx="12" ry="7" fill="#2a2526" stroke="#151b26" stroke-width="2.534" stroke-linejoin="round"/><path d="M 13.4 -88 L 38.004 -51.522 L 30.364 -8.191" fill="none" stroke="#151b26" stroke-width="26.068" stroke-linecap="round" stroke-linejoin="round"/><path d="M 13.4 -88 L 38.004 -51.522 L 30.364 -8.191" fill="none" stroke="#3f5a86" stroke-width="21" stroke-linecap="round" stroke-linejoin="round"/><ellipse cx="34.364" cy="-6.191" rx="12" ry="7" fill="#2a2526" stroke="#151b26" stroke-width="2.534" stroke-linejoin="round"/><path d="M 4.8 -88 L 8 -146" fill="none" stroke="#151b26" stroke-width="57.068" stroke-linecap="round"/><path d="M 4.8 -88 L 8 -146" fill="none" stroke="#9b8fc9" stroke-width="52" stroke-linecap="round"/><path d="M -16 -144 L -37.855 -170.046 L -42.03 -199.754" fill="none" stroke="#151b26" stroke-width="20.068" stroke-linecap="round" stroke-linejoin="round"/><path d="M -16 -144 L -37.855 -170.046 L -42.03 -199.754" fill="none" stroke="#9b8fc9" stroke-width="15" stroke-linecap="round" stroke-linejoin="round"/><circle cx="-42.03" cy="-199.754" r="7.5" fill="#e6b48f" stroke="#151b26" stroke-width="2.534" stroke-linejoin="round"/><path d="M 32 -144 L 62.02 -159.962 L 72.281 -188.153" fill="none" stroke="#151b26" stroke-width="20.068" stroke-linecap="round" stroke-linejoin="round"/><path d="M 32 -144 L 62.02 -159.962 L 72.281 -188.153" fill="none" stroke="#9b8fc9" stroke-width="15" stroke-linecap="round" stroke-linejoin="round"/><circle cx="72.281" cy="-188.153" r="7.5" fill="#e6b48f" stroke="#151b26" stroke-width="2.534" stroke-linejoin="round"/><circle cx="8.8" cy="-178" r="23" fill="#e6b48f" stroke="#151b26" stroke-width="2.534" stroke-linejoin="round"/><path d="M -14.2 -180 Q -13.2 -206 8.8 -204 Q 30.8 -206 31.8 -180 Q 16.8 -192 -14.2 -180 Z" fill="#2d2a3a" stroke="#151b26" stroke-width="2.534" stroke-linejoin="round"/><path d="M -3.2 -180 Q 0.8 -184 4.8 -180" fill="none" stroke="#151b26" stroke-width="2.4"/><path d="M 12.8 -180 Q 16.8 -184 20.8 -180" fill="none" stroke="#151b26" stroke-width="2.4"/><path d="M 0.8 -171 Q 8.8 -160 16.8 -171 Z" fill="#151b26"/></g><ellipse cx="-14" cy="299.54" rx="185" ry="51.8" fill="#0b1018" opacity="0.45"/><path d="M -202.7 299.54 Q -150.9 260.54 -143.5 186.54 L -137.58 -664.46 L -1.42 -664.46 L 4.5 186.54 Q 19.3 260.54 71.1 299.54 Z" fill="#4a3a33" stroke="#151b26" stroke-width="5.55" stroke-linejoin="round"/><path d="M -110.94 242.04 q 7.4 -177.6 0 -325.6" fill="none" stroke="#3a2d2a" stroke-width="5.55" stroke-linecap="round"/><path d="M -76.9 242.04 q 7.4 -177.6 0 -325.6" fill="none" stroke="#3a2d2a" stroke-width="5.55" stroke-linecap="round"/><path d="M -39.9 242.04 q 7.4 -177.6 0 -325.6" fill="none" stroke="#3a2d2a" stroke-width="5.55" stroke-linecap="round"/><path d="M -16.22 242.04 q 7.4 -177.6 0 -325.6" fill="none" stroke="#3a2d2a" stroke-width="5.55" stroke-linecap="round"/><ellipse cx="-65.8" cy="-87.26" rx="49.95" ry="53.28" fill="#342924" stroke="#151b26" stroke-width="5.55" stroke-linejoin="round"/><ellipse cx="-62.1" cy="-83.56" rx="37" ry="42.92" fill="#100b0e"/><circle cx="-69.5" cy="-723.66" r="314.5" fill="#1f3f47"/><circle cx="-310" cy="-620.06" r="240.5" fill="#1f3f47"/><circle cx="171" cy="-634.86" r="249.75" fill="#264c52"/><circle cx="-162" cy="-901.26" r="240.5" fill="#1f3f47"/><circle cx="78.5" cy="-871.66" r="222" fill="#264c52"/><ellipse cx="1854.5" cy="326.03" rx="92.5" ry="27.75" fill="#0b1018" opacity="0.45"/><polygon points="1797.15,179.88 1830.45,159.9 1945.15,159.9 1945.15,300.5 1911.85,320.48" fill="#202028" stroke="#151b26" stroke-width="5.55" stroke-linejoin="round"/><rect x="1797.15" y="179.88" width="114.7" height="140.6" rx="7.4" fill="#2a2b35" stroke="#151b26" stroke-width="5.55" stroke-linejoin="round"/><circle cx="1854.5" cy="222.06" r="20.35" fill="#5a5d74" stroke="#151b26" stroke-width="5.55" stroke-linejoin="round"/><circle cx="1854.5" cy="278.3" r="35.15" fill="#5a5d74" stroke="#151b26" stroke-width="5.55" stroke-linejoin="round"/><circle cx="1854.5" cy="278.3" r="12.95" fill="#3f4151"/><g transform="translate(1752.75 113.28) rotate(-12) scale(2.532 2.532)"><ellipse cx="0" cy="0" rx="9" ry="6.5" fill="#ffd98a" transform="rotate(-20 0 0)"/><rect x="6.5" y="-34" width="3.4" height="34" fill="#ffd98a"/><path d="M 9.9 -34 Q 23 -26 18 -12 Q 17 -22 9.9 -24 Z" fill="#ffd98a"/></g><g transform="translate(1910 61.48) rotate(10) scale(2.532 2.532)"><ellipse cx="0" cy="0" rx="9" ry="6.5" fill="#ffd98a" transform="rotate(-20 0 0)"/><rect x="6.5" y="-34" width="3.4" height="34" fill="#ffd98a"/><ellipse cx="24" cy="-6" rx="9" ry="6.5" fill="#ffd98a" transform="rotate(-20 24 -6)"/><rect x="30.5" y="-40" width="3.4" height="34" fill="#ffd98a"/><polygon points="6.5,-34 33.9,-40 33.9,-33 6.5,-27" fill="#ffd98a"/></g><g transform="translate(1836 -5.12) rotate(-6) scale(2.532 2.532)"><ellipse cx="0" cy="0" rx="9" ry="6.5" fill="#ffd98a" transform="rotate(-20 0 0)"/><rect x="6.5" y="-34" width="3.4" height="34" fill="#ffd98a"/><path d="M 9.9 -34 Q 23 -26 18 -12 Q 17 -22 9.9 -24 Z" fill="#ffd98a"/></g><path d="M 1941.579 228.81 A 46.25 46.25 0 0 1 1941.579 299.67" fill="none" stroke="#ffd98a" stroke-width="5.55" stroke-linecap="round" opacity="0.8"/><path d="M 1958.227 208.97 A 72.15 72.15 0 0 1 1958.227 319.51" fill="none" stroke="#ffd98a" stroke-width="5.55" stroke-linecap="round" opacity="0.8"/><path d="M 1974.875 189.129 A 98.05 98.05 0 0 1 1974.875 339.351" fill="none" stroke="#ffd98a" stroke-width="5.55" stroke-linecap="round" opacity="0.8"/><ellipse cx="1327.25" cy="389.3" rx="22.2" ry="14.8" fill="#6c6f78" stroke="#151b26" stroke-width="4.625" stroke-linejoin="round"/><ellipse cx="1303.445" cy="432.11" rx="22.2" ry="14.8" fill="#6c6f78" stroke="#151b26" stroke-width="4.625" stroke-linejoin="round"/><ellipse cx="1243.169" cy="454.888" rx="22.2" ry="14.8" fill="#6c6f78" stroke="#151b26" stroke-width="4.625" stroke-linejoin="round"/><ellipse cx="1174.625" cy="446.977" rx="22.2" ry="14.8" fill="#6c6f78" stroke="#151b26" stroke-width="4.625" stroke-linejoin="round"/><ellipse cx="1129.886" cy="412.079" rx="22.2" ry="14.8" fill="#6c6f78" stroke="#151b26" stroke-width="4.625" stroke-linejoin="round"/><ellipse cx="1129.886" cy="366.521" rx="22.2" ry="14.8" fill="#6c6f78" stroke="#151b26" stroke-width="4.625" stroke-linejoin="round"/><ellipse cx="1174.625" cy="331.623" rx="22.2" ry="14.8" fill="#6c6f78" stroke="#151b26" stroke-width="4.625" stroke-linejoin="round"/><ellipse cx="1243.169" cy="323.712" rx="22.2" ry="14.8" fill="#6c6f78" stroke="#151b26" stroke-width="4.625" stroke-linejoin="round"/><ellipse cx="1303.445" cy="346.49" rx="22.2" ry="14.8" fill="#6c6f78" stroke="#151b26" stroke-width="4.625" stroke-linejoin="round"/><line x1="1142.25" y1="404.1" x2="1303.2" y2="367.1" stroke="#151b26" stroke-width="40.7" stroke-linecap="round"/><line x1="1142.25" y1="404.1" x2="1303.2" y2="367.1" stroke="#6b4a36" stroke-width="31.45" stroke-linecap="round"/><line x1="1151.5" y1="367.1" x2="1310.6" y2="407.8" stroke="#151b26" stroke-width="40.7" stroke-linecap="round"/><line x1="1151.5" y1="367.1" x2="1310.6" y2="407.8" stroke="#6b4a36" stroke-width="31.45" stroke-linecap="round"/><path d="M 1199.6 385.6 Q 1162.6 348.896 1199.6 293.84 Q 1236.6 348.896 1199.6 385.6 Z" fill="#ff9f1c"/><path d="M 1255.1 385.6 Q 1221.8 356 1255.1 311.6 Q 1288.4 356 1255.1 385.6 Z" fill="#ff9f1c"/><path d="M 1225.5 385.6 Q 1181.1 337.056 1225.5 264.24 Q 1269.9 337.056 1225.5 385.6 Z" fill="#ff9f1c"/><path d="M 1225.5 385.6 Q 1201.45 358.96 1225.5 319 Q 1249.55 358.96 1225.5 385.6 Z" fill="#ffd166"/><path d="M 1203.3 385.6 Q 1186.65 367.84 1203.3 341.2 Q 1219.95 367.84 1203.3 385.6 Z" fill="#ffd166"/><circle cx="1188.5" cy="226.5" r="5.55" fill="#ffd166"/><circle cx="1271.75" cy="204.3" r="5.55" fill="#ffd166"/><circle cx="1234.75" cy="174.7" r="5.55" fill="#ffd166"/><g transform="translate(1697.25 429.445) scale(1.184 1.184)"><ellipse cx="0" cy="2" rx="34" ry="8" fill="#0b1018" opacity="0.45"/><path d="M -8.6 -88 L -14.724 -44.428 L -14.724 -0.428" fill="none" stroke="#151b26" stroke-width="26.068" stroke-linecap="round" stroke-linejoin="round"/><path d="M -8.6 -88 L -14.724 -44.428 L -14.724 -0.428" fill="none" stroke="#3f5a86" stroke-width="21" stroke-linecap="round" stroke-linejoin="round"/><ellipse cx="-18.724" cy="1.572" rx="12" ry="7" fill="#2a2526" stroke="#151b26" stroke-width="2.534" stroke-linejoin="round"/><path d="M 13.4 -88 L 38.004 -51.522 L 30.364 -8.191" fill="none" stroke="#151b26" stroke-width="26.068" stroke-linecap="round" stroke-linejoin="round"/><path d="M 13.4 -88 L 38.004 -51.522 L 30.364 -8.191" fill="none" stroke="#3f5a86" stroke-width="21" stroke-linecap="round" stroke-linejoin="round"/><ellipse cx="34.364" cy="-6.191" rx="12" ry="7" fill="#2a2526" stroke="#151b26" stroke-width="2.534" stroke-linejoin="round"/><path d="M 4.8 -88 L 8 -146" fill="none" stroke="#151b26" stroke-width="57.068" stroke-linecap="round"/><path d="M 4.8 -88 L 8 -146" fill="none" stroke="#8fb59a" stroke-width="52" stroke-linecap="round"/><path d="M -16 -144 L -37.855 -170.046 L -42.03 -199.754" fill="none" stroke="#151b26" stroke-width="20.068" stroke-linecap="round" stroke-linejoin="round"/><path d="M -16 -144 L -37.855 -170.046 L -42.03 -199.754" fill="none" stroke="#8fb59a" stroke-width="15" stroke-linecap="round" stroke-linejoin="round"/><circle cx="-42.03" cy="-199.754" r="7.5" fill="#e6b48f" stroke="#151b26" stroke-width="2.534" stroke-linejoin="round"/><path d="M 32 -144 L 62.02 -159.962 L 72.281 -188.153" fill="none" stroke="#151b26" stroke-width="20.068" stroke-linecap="round" stroke-linejoin="round"/><path d="M 32 -144 L 62.02 -159.962 L 72.281 -188.153" fill="none" stroke="#8fb59a" stroke-width="15" stroke-linecap="round" stroke-linejoin="round"/><circle cx="72.281" cy="-188.153" r="7.5" fill="#e6b48f" stroke="#151b26" stroke-width="2.534" stroke-linejoin="round"/><circle cx="8.8" cy="-178" r="23" fill="#e6b48f" stroke="#151b26" stroke-width="2.534" stroke-linejoin="round"/><path d="M -14.2 -180 Q -13.2 -206 8.8 -204 Q 30.8 -206 31.8 -180 Q 16.8 -192 -14.2 -180 Z" fill="#2f2a24" stroke="#151b26" stroke-width="2.534" stroke-linejoin="round"/><path d="M -3.2 -180 Q 0.8 -184 4.8 -180" fill="none" stroke="#151b26" stroke-width="2.4"/><path d="M 12.8 -180 Q 16.8 -184 20.8 -180" fill="none" stroke="#151b26" stroke-width="2.4"/><path d="M 0.8 -171 Q 8.8 -160 16.8 -171 Z" fill="#151b26"/></g><g transform="translate(531.75 452.385) scale(1.184 1.184)"><ellipse cx="0" cy="2" rx="34" ry="8" fill="#0b1018" opacity="0.45"/><path d="M -8.6 -88 L -14.724 -44.428 L -14.724 -0.428" fill="none" stroke="#151b26" stroke-width="26.068" stroke-linecap="round" stroke-linejoin="round"/><path d="M -8.6 -88 L -14.724 -44.428 L -14.724 -0.428" fill="none" stroke="#3f5a86" stroke-width="21" stroke-linecap="round" stroke-linejoin="round"/><ellipse cx="-18.724" cy="1.572" rx="12" ry="7" fill="#2a2526" stroke="#151b26" stroke-width="2.534" stroke-linejoin="round"/><path d="M 13.4 -88 L 38.004 -51.522 L 30.364 -8.191" fill="none" stroke="#151b26" stroke-width="26.068" stroke-linecap="round" stroke-linejoin="round"/><path d="M 13.4 -88 L 38.004 -51.522 L 30.364 -8.191" fill="none" stroke="#3f5a86" stroke-width="21" stroke-linecap="round" stroke-linejoin="round"/><ellipse cx="34.364" cy="-6.191" rx="12" ry="7" fill="#2a2526" stroke="#151b26" stroke-width="2.534" stroke-linejoin="round"/><path d="M 4.8 -88 L 8 -146" fill="none" stroke="#151b26" stroke-width="57.068" stroke-linecap="round"/><path d="M 4.8 -88 L 8 -146" fill="none" stroke="#c98fb5" stroke-width="52" stroke-linecap="round"/><path d="M -16 -144 L -37.855 -170.046 L -42.03 -199.754" fill="none" stroke="#151b26" stroke-width="20.068" stroke-linecap="round" stroke-linejoin="round"/><path d="M -16 -144 L -37.855 -170.046 L -42.03 -199.754" fill="none" stroke="#c98fb5" stroke-width="15" stroke-linecap="round" stroke-linejoin="round"/><circle cx="-42.03" cy="-199.754" r="7.5" fill="#e6b48f" stroke="#151b26" stroke-width="2.534" stroke-linejoin="round"/><path d="M 32 -144 L 62.02 -159.962 L 72.281 -188.153" fill="none" stroke="#151b26" stroke-width="20.068" stroke-linecap="round" stroke-linejoin="round"/><path d="M 32 -144 L 62.02 -159.962 L 72.281 -188.153" fill="none" stroke="#c98fb5" stroke-width="15" stroke-linecap="round" stroke-linejoin="round"/><circle cx="72.281" cy="-188.153" r="7.5" fill="#e6b48f" stroke="#151b26" stroke-width="2.534" stroke-linejoin="round"/><circle cx="8.8" cy="-178" r="23" fill="#3b2a20" stroke="#151b26" stroke-width="2.534" stroke-linejoin="round"/><circle cx="-13.2" cy="-176" r="5" fill="#e6b48f" stroke="#151b26" stroke-width="2.534" stroke-linejoin="round"/><circle cx="30.8" cy="-176" r="5" fill="#e6b48f" stroke="#151b26" stroke-width="2.534" stroke-linejoin="round"/></g><ellipse cx="985" cy="540.075" rx="183.15" ry="22.2" fill="#0b1018" opacity="0.45"/><rect x="818.5" y="473.475" width="333" height="59.2" rx="29.6" fill="#6b4a36" stroke="#151b26" stroke-width="5.55" stroke-linejoin="round"/><ellipse cx="1133.74" cy="503.075" rx="19.24" ry="28.12" fill="#c89b6a" stroke="#151b26" stroke-width="5.55" stroke-linejoin="round"/><line x1="885.1" y1="503.075" x2="1034.95" y2="497.155" stroke="#503828" stroke-width="4.625" stroke-linecap="round"/><g transform="translate(1012.75 534.969) scale(1.184 1.184)"><path d="M 4.481 -103.66 L 21.481 -74.215 L 51.551 -63.271" fill="none" stroke="#151b26" stroke-width="20.068" stroke-linecap="round" stroke-linejoin="round"/><path d="M 4.481 -103.66 L 21.481 -74.215 L 51.551 -63.271" fill="none" stroke="#b89031" stroke-width="15" stroke-linecap="round" stroke-linejoin="round"/><circle cx="51.551" cy="-63.271" r="7.5" fill="#e6b48f" stroke="#151b26" stroke-width="2.534" stroke-linejoin="round"/><path d="M -4 -46 L 39.572 -39.876 L 42.641 4.016" fill="none" stroke="#151b26" stroke-width="26.068" stroke-linecap="round" stroke-linejoin="round"/><path d="M -4 -46 L 39.572 -39.876 L 42.641 4.016" fill="none" stroke="#344a6e" stroke-width="21" stroke-linecap="round" stroke-linejoin="round"/><path d="M 4 -46 L 47.973 -47.536 L 55.614 -4.204" fill="none" stroke="#151b26" stroke-width="27.068" stroke-linecap="round" stroke-linejoin="round"/><path d="M 4 -46 L 47.973 -47.536 L 55.614 -4.204" fill="none" stroke="#3f5a86" stroke-width="22" stroke-linecap="round" stroke-linejoin="round"/><ellipse cx="49.641" cy="6.016" rx="13" ry="7" fill="#2a2526" stroke="#151b26" stroke-width="2.534" stroke-linejoin="round"/><ellipse cx="62.614" cy="-2.204" rx="13" ry="7" fill="#2a2526" stroke="#151b26" stroke-width="2.534" stroke-linejoin="round"/><path d="M 0 -46 L 6.481 -107.66" fill="none" stroke="#151b26" stroke-width="51.068" stroke-linecap="round"/><path d="M 0 -46 L 6.481 -107.66" fill="none" stroke="#e0b03c" stroke-width="46" stroke-linecap="round"/><ellipse cx="-8.383" cy="-127.496" rx="8" ry="14" fill="#4a3426" stroke="#151b26" stroke-width="2.534" stroke-linejoin="round" transform="rotate(24 -8.383 -127.496)"/><circle cx="13.617" cy="-137.496" r="22" fill="#e6b48f" stroke="#151b26" stroke-width="2.534" stroke-linejoin="round"/><path d="M -8.383 -133.496 Q -12.383 -161.496 13.617 -161.496 Q 33.617 -161.496 35.617 -145.496 Q 19.617 -151.496 9.617 -143.496 Q 1.617 -129.496 -8.383 -133.496 Z" fill="#4a3426" stroke="#151b26" stroke-width="2.534" stroke-linejoin="round"/><circle cx="34.617" cy="-134.496" r="4.2" fill="#e6b48f" stroke="#151b26" stroke-width="2.534" stroke-linejoin="round"/><path d="M 19.617 -140.496 Q 23.617 -144.496 27.617 -140.496" fill="none" stroke="#151b26" stroke-width="2.4"/><path d="M 20.617 -128.496 Q 26.617 -117.496 32.617 -128.496 Z" fill="#151b26"/><path d="M -7.383 -143.496 Q -6.383 -174.496 15.617 -174.496 Q 35.617 -172.496 35.617 -143.496 Z" fill="#d7263d" stroke="#151b26" stroke-width="2.534" stroke-linejoin="round"/><rect x="-9.383" y="-150.496" width="47" height="11" rx="4" fill="#a51c2e" stroke="#151b26" stroke-width="2.534" stroke-linejoin="round"/><circle cx="14.617" cy="-178.496" r="7" fill="#d7263d" stroke="#151b26" stroke-width="2.534" stroke-linejoin="round"/><path d="M 8.481 -103.66 L 41.738 -96.591 L 73.66 -94.359" fill="none" stroke="#151b26" stroke-width="21.068" stroke-linecap="round" stroke-linejoin="round"/><path d="M 8.481 -103.66 L 41.738 -96.591 L 73.66 -94.359" fill="none" stroke="#e0b03c" stroke-width="16" stroke-linecap="round" stroke-linejoin="round"/><circle cx="73.66" cy="-94.359" r="8" fill="#e6b48f" stroke="#151b26" stroke-width="2.534" stroke-linejoin="round"/><line x1="73.66" y1="-94.359" x2="184.57" y2="-109.947" stroke="#8a6a4a" stroke-width="4.5" stroke-linecap="round"/><ellipse cx="184.57" cy="-109.947" rx="9" ry="7" fill="#fff8ec" stroke="#151b26" stroke-width="2.534" stroke-linejoin="round"/></g><ellipse cx="735.25" cy="572.635" rx="66.6" ry="18.5" fill="#0b1018" opacity="0.45"/><rect x="689" y="475.325" width="92.5" height="91.76" rx="25.9" fill="#8f8a3c" stroke="#151b26" stroke-width="5.55" stroke-linejoin="round"/><rect x="701.95" y="525.793" width="66.6" height="33.034" rx="11.1" fill="#6b672e" stroke="#151b26" stroke-width="5.55" stroke-linejoin="round"/><path d="M 781.5 493.677 q 18.5 37 0 66.6" fill="none" stroke="#6b672e" stroke-width="9.25" stroke-linecap="round"/><ellipse cx="735.25" cy="490.125" rx="35.15" ry="12.95" fill="#2a2618" stroke="#151b26" stroke-width="5.55" stroke-linejoin="round"/><rect x="713.05" y="453.125" width="44.4" height="44.4" rx="9.25" fill="#f6eef2" stroke="#151b26" stroke-width="5.55" stroke-linejoin="round"/><circle cx="726" cy="453.125" r="9.25" fill="#ffffff" stroke="#151b26" stroke-width="5.55" stroke-linejoin="round"/><circle cx="746.35" cy="449.425" r="9.25" fill="#ffffff" stroke="#151b26" stroke-width="5.55" stroke-linejoin="round"/><g transform="translate(655.7 579.702) scale(0.629 0.629)"><ellipse cx="0" cy="3" rx="120" ry="15" fill="#0b1018" opacity="0.45"/><g><g transform="rotate(-30 -88 -112)"><path d="M -88 -112 Q -168 -152 -230 -124" fill="none" stroke="#151b26" stroke-width="56.175" stroke-linecap="round"/><path d="M -88 -112 Q -168 -152 -230 -124" fill="none" stroke="#bdb8b2" stroke-width="46" stroke-linecap="round"/><path d="M -88 -112 Q -168 -152 -230 -124" fill="none" stroke="#35322f" stroke-width="46" stroke-dasharray="16.56 16.56" stroke-dashoffset="-23"/><circle cx="-230" cy="-124" r="23" fill="#35322f" stroke="#151b26" stroke-width="5.087" stroke-linejoin="round"/></g><path d="M -44 -86 L -41.208 -6.049" fill="none" stroke="#151b26" stroke-width="38.175" stroke-linecap="round" stroke-linejoin="round"/><path d="M -44 -86 L -41.208 -6.049" fill="none" stroke="#827d78" stroke-width="28" stroke-linecap="round" stroke-linejoin="round"/><ellipse cx="-36.068" cy="-2.051" rx="17.36" ry="10.64" fill="#35322f" stroke="#151b26" stroke-width="5.087" stroke-linejoin="round"/><g transform="rotate(-58 -52 -84)"><path d="M 64 -86 L 111.023 -21.279" fill="none" stroke="#151b26" stroke-width="34.175" stroke-linecap="round" stroke-linejoin="round"/><path d="M 64 -86 L 111.023 -21.279" fill="none" stroke="#827d78" stroke-width="24" stroke-linecap="round" stroke-linejoin="round"/><ellipse cx="118.374" cy="-18.043" rx="14.88" ry="9.12" fill="#35322f" stroke="#151b26" stroke-width="5.087" stroke-linejoin="round"/><ellipse cx="0" cy="-104" rx="100" ry="58" fill="#a39e9a" stroke="#151b26" stroke-width="5.087" stroke-linejoin="round"/><path d="M -100 -104 A 100 58 0 0 0 100 -104 Q 0 -80 -100 -104 Z" fill="#827d78"/><ellipse cx="0" cy="-104" rx="100" ry="58" fill="none" stroke="#151b26" stroke-width="5.087" stroke-linejoin="round"/><ellipse cx="66" cy="-92" rx="24" ry="24" fill="#efe8d2"/></g><path d="M -52 -84 L -65.892 -5.215" fill="none" stroke="#151b26" stroke-width="40.175" stroke-linecap="round" stroke-linejoin="round"/><path d="M -52 -84 L -65.892 -5.215" fill="none" stroke="#a39e9a" stroke-width="30" stroke-linecap="round" stroke-linejoin="round"/><ellipse cx="-61.586" cy="-1.276" rx="18.6" ry="11.4" fill="#35322f" stroke="#151b26" stroke-width="5.087" stroke-linejoin="round"/><g transform="rotate(-58 -52 -84)"><path d="M 56 -84 L 119.041 -34.747" fill="none" stroke="#151b26" stroke-width="36.175" stroke-linecap="round" stroke-linejoin="round"/><path d="M 56 -84 L 119.041 -34.747" fill="none" stroke="#a39e9a" stroke-width="26" stroke-linecap="round" stroke-linejoin="round"/><ellipse cx="127.193" cy="-32.284" rx="16.12" ry="9.88" fill="#35322f" stroke="#151b26" stroke-width="5.087" stroke-linejoin="round"/><g transform="rotate(50 84 -128)"><g transform="translate(86 -184) rotate(-24) scale(1)"><path d="M -13 8 Q -7 -30 1 -31 Q 9 -30 13 8 Z" fill="#827d78" stroke="#151b26" stroke-width="5.087" stroke-linejoin="round"/><path d="M -6 5 Q -2 -17 1 -18 Q 5 -17 6 5 Z" fill="#35322f"/></g><circle cx="106" cy="-148" r="44" fill="#a39e9a" stroke="#151b26" stroke-width="5.087" stroke-linejoin="round"/><g transform="translate(116 -190) rotate(10) scale(1)"><path d="M -13 8 Q -7 -30 1 -31 Q 9 -30 13 8 Z" fill="#a39e9a" stroke="#151b26" stroke-width="5.087" stroke-linejoin="round"/><path d="M -6 5 Q -2 -17 1 -18 Q 5 -17 6 5 Z" fill="#35322f"/></g><ellipse cx="122" cy="-168" rx="30" ry="9" fill="#efe8d2" transform="rotate(-14 122 -168)"/><ellipse cx="124" cy="-150" rx="32" ry="15" fill="#35322f" transform="rotate(-8 124 -150)"/><ellipse cx="142" cy="-128" rx="33" ry="19" fill="#efe8d2" stroke="#151b26" stroke-width="5.087" stroke-linejoin="round" transform="rotate(-6 142 -128)"/><ellipse cx="173" cy="-134" rx="9" ry="7" fill="#35322f" stroke="#151b26" stroke-width="5.087" stroke-linejoin="round"/><circle cx="128" cy="-154" r="13" fill="#ffffff" stroke="#151b26" stroke-width="5.087" stroke-linejoin="round"/><circle cx="131" cy="-154" r="5.5" fill="#141313"/><path d="M 66 -219.6 Q 54.8 -200 66 -191.6 Q 77.2 -200 66 -219.6 Z" fill="#9fd3ff" stroke="#151b26" stroke-width="2.5" stroke-linejoin="round"/></g></g></g></g><line x1="636.439" y1="438.177" x2="624.315" y2="431.177" stroke="#f2efe6" stroke-width="3.5" stroke-linecap="round"/><line x1="652.555" y1="422.061" x2="645.555" y2="409.937" stroke="#f2efe6" stroke-width="3.5" stroke-linecap="round"/><line x1="696.585" y1="422.061" x2="703.585" y2="409.937" stroke="#f2efe6" stroke-width="3.5" stroke-linecap="round"/><line x1="712.701" y1="438.177" x2="724.825" y2="431.177" stroke="#f2efe6" stroke-width="3.5" stroke-linecap="round"/><line x1="633.195" y1="445.133" x2="620.04" y2="440.345" stroke="#f2efe6" stroke-width="3.5" stroke-linecap="round"/><line x1="715.945" y1="445.133" x2="729.1" y2="440.345" stroke="#f2efe6" stroke-width="3.5" stroke-linecap="round"/><ellipse cx="1564.05" cy="589.84" rx="114.7" ry="29.6" fill="#0b1018" opacity="0.45"/><rect x="1466" y="510.29" width="166.5" height="74" rx="9.25" fill="#3f88a8" stroke="#151b26" stroke-width="5.55" stroke-linejoin="round"/><polygon points="1466,510.29 1486.35,487.905 1652.85,487.905 1632.5,510.29" fill="#e8e2d2" stroke="#151b26" stroke-width="5.55" stroke-linejoin="round"/><rect x="1527.05" y="538.41" width="44.4" height="11.1" rx="3.7" fill="#2c5f76"/><rect x="1570.525" y="440.915" width="24.05" height="59.2" rx="5.55" fill="#5f8f7f" stroke="#151b26" stroke-width="5.55" stroke-linejoin="round"/><rect x="1568.12" y="427.965" width="28.86" height="14.8" rx="3.7" fill="#426459" stroke="#151b26" stroke-width="5.55" stroke-linejoin="round"/><g opacity="0.95"><path d="M 591.75 152.385 Q 681.75 202.385 701.75 282.385" fill="none" stroke="#f2efe6" stroke-width="5" stroke-linecap="round" stroke-dasharray="4 12"/><polygon points="701.75,282.385 691.504,270.096 705.007,266.72" fill="#f2efe6"/></g><line x1="567.646" y1="163.661" x2="545.093" y2="155.453" stroke="#f2efe6" stroke-width="3" stroke-linecap="round" opacity="0.85"/><line x1="571.75" y1="152.385" x2="541.68" y2="141.44" stroke="#f2efe6" stroke-width="3" stroke-linecap="round" opacity="0.85"/><line x1="575.854" y1="141.109" x2="538.267" y2="127.428" stroke="#f2efe6" stroke-width="3" stroke-linecap="round" opacity="0.85"/><g transform="translate(1256.8 58.8) scale(0.6 0.6)"><rect x="-58" y="-58" width="116" height="116" rx="18" fill="none" stroke="#ffb347" stroke-width="9" opacity="0.95"/><rect x="-48" y="-48" width="96" height="96" rx="12" fill="#f6efdc" stroke="#151b26" stroke-width="5" stroke-linejoin="round"/><g transform="scale(0.72)"><path d="M -30 -18 Q -32 40 0 42 Q 32 40 30 -18 Z" fill="#fbe9ef" stroke="#3a3330" stroke-width="4" stroke-linejoin="round" stroke-linecap="round"/><path d="M -18 -18 L -8 -32 L 0 -22 L 8 -32 L 18 -18" fill="none" stroke="#3a3330" stroke-width="4" stroke-linejoin="round" stroke-linecap="round"/><rect x="-20" y="0" width="16" height="14" rx="5" fill="#ffffff" stroke="#3a3330" stroke-width="4" stroke-linejoin="round" stroke-linecap="round"/><rect x="2" y="10" width="16" height="14" rx="5" fill="#ffffff" stroke="#3a3330" stroke-width="4" stroke-linejoin="round" stroke-linecap="round"/></g><circle cx="34" cy="-34" r="9" fill="#f6efdc" stroke="#3a3330" stroke-width="3"/></g><g transform="translate(1326.4 58.8) scale(0.6 0.6)"><rect x="-48" y="-48" width="96" height="96" rx="12" fill="#f6efdc" stroke="#151b26" stroke-width="5" stroke-linejoin="round"/><g transform="scale(0.72)"><rect x="-30" y="-14" width="44" height="48" rx="6" fill="#e9dcc2" stroke="#3a3330" stroke-width="4" stroke-linejoin="round" stroke-linecap="round"/><path d="M 14 -4 Q 34 -4 34 10 Q 34 24 14 22" fill="none" stroke="#3a3330" stroke-width="4" stroke-linejoin="round" stroke-linecap="round"/><ellipse cx="-8" cy="-12" rx="19" ry="5" fill="#7a5236"/><path d="M -18 -24 q -6 -8 0 -16 M -4 -26 q -6 -8 0 -16" fill="none" stroke="#3a3330" stroke-width="4" stroke-linejoin="round" stroke-linecap="round"/><circle cx="30" cy="-30" r="4" fill="#7a5236"/><circle cx="38" cy="-18" r="3" fill="#7a5236"/></g><circle cx="34" cy="-34" r="9" fill="#f6efdc" stroke="#3a3330" stroke-width="3"/></g><g transform="translate(1396 58.8) scale(0.6 0.6)"><rect x="-48" y="-48" width="96" height="96" rx="12" fill="#f6efdc" stroke="#151b26" stroke-width="5" stroke-linejoin="round"/><g transform="scale(0.72)"><path d="M -36 -36 L -12 -36 L -12 6 Q -12 22 4 24 L 18 24 Q 30 24 30 36 Q 30 44 18 44 L -8 44 Q -36 44 -36 16 Z" fill="#e8e2f0" stroke="#3a3330" stroke-width="4" stroke-linejoin="round" stroke-linecap="round"/><line x1="-36" y1="-26" x2="-12" y2="-26" stroke="#3a3330" stroke-width="4" stroke-linecap="round"/><rect x="16" y="-36" width="20" height="16" rx="6" fill="#ffffff" stroke="#3a3330" stroke-width="4" stroke-linejoin="round" stroke-linecap="round"/><path d="M 4 -14 Q 22 -4 26 6" fill="none" stroke="#3a3330" stroke-width="4" stroke-linejoin="round" stroke-linecap="round"/><path d="M 20 2 L 26 6 L 28 -1" fill="none" stroke="#3a3330" stroke-width="4" stroke-linejoin="round" stroke-linecap="round"/></g><circle cx="34" cy="-34" r="9" fill="#f6efdc" stroke="#3a3330" stroke-width="3"/></g><g transform="translate(1465.6 58.8) scale(0.6 0.6)"><rect x="-48" y="-48" width="96" height="96" rx="12" fill="#f6efdc" stroke="#151b26" stroke-width="5" stroke-linejoin="round"/><g transform="scale(0.72)"><rect x="-38" y="-38" width="40" height="70" rx="6" fill="#3a3d4a" stroke="#3a3330" stroke-width="4" stroke-linejoin="round" stroke-linecap="round"/><circle cx="-18" cy="-18" r="8" fill="#7a7f99" stroke="#3a3330" stroke-width="4" stroke-linejoin="round" stroke-linecap="round"/><circle cx="-18" cy="12" r="12" fill="#7a7f99" stroke="#3a3330" stroke-width="4" stroke-linejoin="round" stroke-linecap="round"/><path d="M 2 26 Q 26 26 30 4" fill="none" stroke="#3a3330" stroke-width="4" stroke-linejoin="round" stroke-linecap="round"/><rect x="26" y="-8" width="14" height="12" rx="2" fill="#3a3d4a" stroke="#3a3330" stroke-width="4" stroke-linejoin="round" stroke-linecap="round"/><ellipse cx="17" cy="-24" rx="6.5" ry="5" fill="#3a3330" transform="rotate(-20 17 -24)"/><line x1="22.5" y1="-26" x2="22.5" y2="-46" stroke="#3a3330" stroke-width="3.2" stroke-linecap="round"/><path d="M 22.5 -46 Q 32 -42 30 -33" fill="none" stroke="#3a3330" stroke-width="4" stroke-linejoin="round" stroke-linecap="round"/><line x1="8" y1="-48" x2="40" y2="-18" stroke="#3a3330" stroke-width="4" stroke-linecap="round"/></g><circle cx="34" cy="-34" r="9" fill="#f6efdc" stroke="#3a3330" stroke-width="3"/></g><g transform="translate(1535.2 58.8) scale(0.6 0.6)"><rect x="-48" y="-48" width="96" height="96" rx="12" fill="#f6efdc" stroke="#151b26" stroke-width="5" stroke-linejoin="round"/><g transform="scale(0.72)"><g transform="rotate(-14)"><path d="M -36 34 L 2 -30 L 36 34 Z" fill="#e2c79a" stroke="#3a3330" stroke-width="4" stroke-linejoin="round" stroke-linecap="round"/><path d="M 2 -30 L 2 34" fill="none" stroke="#3a3330" stroke-width="4" stroke-linejoin="round" stroke-linecap="round"/></g><path d="M -30 -36 q 6 -6 12 0 M 22 -38 q 6 -6 12 0" fill="none" stroke="#3a3330" stroke-width="4" stroke-linejoin="round" stroke-linecap="round"/></g><circle cx="34" cy="-34" r="9" fill="#f6efdc" stroke="#3a3330" stroke-width="3"/></g></svg>