<svg xmlns="http://www.w3.org/2000/svg" viewBox="0 0 1600 900" width="1600" height="900"><title>7. Busted</title><defs><linearGradient id="p07-sky" x1="0" y1="0" x2="0" y2="1"><stop offset="0" stop-color="#1d2150"/><stop offset="1" stop-color="#3a3a78"/></linearGradient><radialGradient id="p07-bulb"><stop offset="0" stop-color="#ffd98a" stop-opacity="0.6"/><stop offset="1" stop-color="#ffd98a" stop-opacity="0"/></radialGradient><radialGradient id="p07-fire"><stop offset="0" stop-color="#ffb347" stop-opacity="0.55"/><stop offset="1" stop-color="#ffb347" stop-opacity="0"/></radialGradient><radialGradient id="p07-fireground"><stop offset="0" stop-color="#ffb347" stop-opacity="0.35"/><stop offset="1" stop-color="#ffb347" stop-opacity="0"/></radialGradient></defs><rect x="0" y="0" width="1600" height="900" fill="url(#p07-sky)"/><circle cx="362.729" cy="404.164" r="1.377" fill="#e6e4ff" opacity="0.8"/><circle cx="1127.707" cy="35.778" r="1.546" fill="#e6e4ff" opacity="0.8"/><circle cx="1598.606" cy="87.947" r="2.099" fill="#e6e4ff" opacity="0.8"/><circle cx="734.614" cy="190.316" r="1.893" fill="#e6e4ff" opacity="0.8"/><circle cx="307.569" cy="348.819" r="1.325" fill="#e6e4ff" opacity="0.8"/><circle cx="374.693" cy="8.396" r="1.573" fill="#e6e4ff" opacity="0.8"/><circle cx="652.262" cy="378.867" r="1.731" fill="#e6e4ff" opacity="0.8"/><circle cx="181.969" cy="108.51" r="2.588" fill="#e6e4ff" opacity="0.8"/><circle cx="100.942" cy="260.471" r="1.728" fill="#e6e4ff" opacity="0.8"/><circle cx="1057.349" cy="142.144" r="2.168" fill="#e6e4ff" opacity="0.8"/><circle cx="796.129" cy="272.883" r="2.462" fill="#e6e4ff" opacity="0.8"/><circle cx="930.458" cy="59.698" r="1.29" fill="#e6e4ff" opacity="0.8"/><circle cx="1513.682" cy="205.24" r="1.471" fill="#e6e4ff" opacity="0.8"/><circle cx="1513.671" cy="243.164" r="2.221" fill="#e6e4ff" opacity="0.8"/><circle cx="1409.535" cy="119.974" r="1.699" fill="#e6e4ff" opacity="0.8"/><circle cx="1404.922" cy="56.69" r="2.27" fill="#e6e4ff" opacity="0.8"/><circle cx="156.186" cy="289.876" r="2.183" fill="#e6e4ff" opacity="0.8"/><circle cx="1520" cy="354.267" r="1.905" fill="#e6e4ff" opacity="0.8"/><circle cx="316.237" cy="63.067" r="1.94" fill="#e6e4ff" opacity="0.8"/><circle cx="815.665" cy="29.997" r="2.465" fill="#e6e4ff" opacity="0.8"/><circle cx="811.868" cy="294.544" r="1.508" fill="#e6e4ff" opacity="0.8"/><circle cx="390.218" cy="5.005" r="1.681" fill="#e6e4ff" opacity="0.8"/><circle cx="426.948" cy="177.829" r="1.728" fill="#e6e4ff" opacity="0.8"/><circle cx="1334.906" cy="374.416" r="1.445" fill="#e6e4ff" opacity="0.8"/><circle cx="634.022" cy="69.796" r="2.128" fill="#e6e4ff" opacity="0.8"/><circle cx="1559.753" cy="84.759" r="2.273" fill="#e6e4ff" opacity="0.8"/><circle cx="480.072" cy="5.551" r="2.27" fill="#e6e4ff" opacity="0.8"/><circle cx="546.905" cy="71.466" r="1.81" fill="#e6e4ff" opacity="0.8"/><circle cx="370.751" cy="172.242" r="1.824" fill="#e6e4ff" opacity="0.8"/><circle cx="668.738" cy="247.174" r="1.604" fill="#e6e4ff" opacity="0.8"/><circle cx="152.179" cy="35.807" r="1.349" fill="#e6e4ff" opacity="0.8"/><circle cx="833.511" cy="151.269" r="2.331" fill="#e6e4ff" opacity="0.8"/><circle cx="807.877" cy="297.434" r="2.572" fill="#e6e4ff" opacity="0.8"/><circle cx="100.758" cy="7.116" r="1.397" fill="#e6e4ff" opacity="0.8"/><circle cx="618.133" cy="240.942" r="2.241" fill="#e6e4ff" opacity="0.8"/><circle cx="562.311" cy="405.284" r="1.204" fill="#e6e4ff" opacity="0.8"/><circle cx="1337.086" cy="88.234" r="2.425" fill="#e6e4ff" opacity="0.8"/><circle cx="52.994" cy="405.368" r="2.263" fill="#e6e4ff" opacity="0.8"/><circle cx="1584.736" cy="243.603" r="1.449" fill="#e6e4ff" opacity="0.8"/><circle cx="1551.79" cy="185.44" r="1.317" fill="#e6e4ff" opacity="0.8"/><circle cx="968.643" cy="208.827" r="1.862" fill="#e6e4ff" opacity="0.8"/><circle cx="247.231" cy="51.249" r="2.013" fill="#e6e4ff" opacity="0.8"/><circle cx="724.303" cy="53.11" r="1.815" fill="#e6e4ff" opacity="0.8"/><circle cx="1160.839" cy="300.506" r="1.86" fill="#e6e4ff" opacity="0.8"/><circle cx="630.005" cy="151.539" r="1.516" fill="#e6e4ff" opacity="0.8"/><circle cx="316.011" cy="187.413" r="1.351" fill="#e6e4ff" opacity="0.8"/><circle cx="1160.226" cy="297.495" r="2.056" fill="#e6e4ff" opacity="0.8"/><circle cx="36.188" cy="152.921" r="1.805" fill="#e6e4ff" opacity="0.8"/><circle cx="149.337" cy="406.47" r="2.258" fill="#e6e4ff" opacity="0.8"/><circle cx="804.132" cy="296.172" r="1.481" fill="#e6e4ff" opacity="0.8"/><circle cx="367.095" cy="220.811" r="2.242" fill="#e6e4ff" opacity="0.8"/><circle cx="1035.635" cy="2.808" r="2.058" fill="#e6e4ff" opacity="0.8"/><circle cx="1454.162" cy="312.182" r="2.499" fill="#e6e4ff" opacity="0.8"/><circle cx="1570.77" cy="93.941" r="1.615" fill="#e6e4ff" opacity="0.8"/><circle cx="875.742" cy="410.257" r="1.717" fill="#e6e4ff" opacity="0.8"/><circle cx="1506.277" cy="357.203" r="1.923" fill="#e6e4ff" opacity="0.8"/><circle cx="1000.179" cy="401.962" r="2.297" fill="#e6e4ff" opacity="0.8"/><circle cx="473.323" cy="355.201" r="1.474" fill="#e6e4ff" opacity="0.8"/><circle cx="591.956" cy="402.605" r="2.386" fill="#e6e4ff" opacity="0.8"/><circle cx="499.186" cy="122.008" r="2.058" fill="#e6e4ff" opacity="0.8"/><polygon points="1240,742 1440,470 1640,742" fill="#2a2a4a"/><path d="M -40 130 Q 800 235 1640 60" fill="none" stroke="#101722" stroke-width="4.4"/><circle cx="65" cy="153.031" r="37.4" fill="url(#p07-bulb)"/><circle cx="65" cy="153.031" r="11" fill="#ffd98a"/><circle cx="170" cy="162.875" r="37.4" fill="url(#p07-bulb)"/><circle cx="170" cy="162.875" r="11" fill="#ffd98a"/><circle cx="275" cy="170.531" r="37.4" fill="url(#p07-bulb)"/><circle cx="275" cy="170.531" r="11" fill="#ffd98a"/><circle cx="380" cy="176" r="37.4" fill="url(#p07-bulb)"/><circle cx="380" cy="176" r="11" fill="#ffd98a"/><circle cx="485" cy="179.281" r="37.4" fill="url(#p07-bulb)"/><circle cx="485" cy="179.281" r="11" fill="#ffd98a"/><circle cx="590" cy="180.375" r="37.4" fill="url(#p07-bulb)"/><circle cx="590" cy="180.375" r="11" fill="#ffd98a"/><circle cx="695" cy="179.281" r="37.4" fill="url(#p07-bulb)"/><circle cx="695" cy="179.281" r="11" fill="#ffd98a"/><circle cx="800" cy="176" r="37.4" fill="url(#p07-bulb)"/><circle cx="800" cy="176" r="11" fill="#ffd98a"/><circle cx="905" cy="170.531" r="37.4" fill="url(#p07-bulb)"/><circle cx="905" cy="170.531" r="11" fill="#ffd98a"/><circle cx="1010" cy="162.875" r="37.4" fill="url(#p07-bulb)"/><circle cx="1010" cy="162.875" r="11" fill="#ffd98a"/><circle cx="1115" cy="153.031" r="37.4" fill="url(#p07-bulb)"/><circle cx="1115" cy="153.031" r="11" fill="#ffd98a"/><circle cx="1220" cy="141" r="37.4" fill="url(#p07-bulb)"/><circle cx="1220" cy="141" r="11" fill="#ffd98a"/><circle cx="1325" cy="126.781" r="37.4" fill="url(#p07-bulb)"/><circle cx="1325" cy="126.781" r="11" fill="#ffd98a"/><circle cx="1430" cy="110.375" r="37.4" fill="url(#p07-bulb)"/><circle cx="1430" cy="110.375" r="11" fill="#ffd98a"/><circle cx="1535" cy="91.781" r="37.4" fill="url(#p07-bulb)"/><circle cx="1535" cy="91.781" r="11" fill="#ffd98a"/><ellipse cx="-60" cy="760" rx="760" ry="520" fill="url(#p07-fire)"/><path d="M 0 742 Q 800 720 1600 742 L 1600 900 L 0 900 Z" fill="#2b474c"/><ellipse cx="-60" cy="820" rx="700" ry="200" fill="url(#p07-fireground)"/><ellipse cx="1298.4" cy="870.4" rx="173.6" ry="44.8" fill="#0b1018" opacity="0.45"/><rect x="1150" y="722" width="252" height="140" rx="14" fill="#3f88a8" stroke="#151b26" stroke-width="8.4" stroke-linejoin="round"/><polygon points="1150,722 1180.8,688.12 1432.8,688.12 1402,722" fill="#e8e2d2" stroke="#151b26" stroke-width="8.4" stroke-linejoin="round"/><rect x="1242.4" y="775.2" width="67.2" height="16.8" rx="5.6" fill="#2c5f76"/><rect x="1308.2" y="594.6" width="36.4" height="112" rx="8.4" fill="#5f8f7f" stroke="#151b26" stroke-width="8.4" stroke-linejoin="round"/><rect x="1304.56" y="575" width="43.68" height="22.4" rx="5.6" fill="#426459" stroke="#151b26" stroke-width="8.4" stroke-linejoin="round"/><line x1="1170" y1="241" x2="1242" y2="241" stroke="#f2efe6" stroke-width="4" stroke-linecap="round" opacity="0.85"/><line x1="1170" y1="267" x2="1266" y2="267" stroke="#f2efe6" stroke-width="4" stroke-linecap="round" opacity="0.85"/><line x1="1170" y1="293" x2="1290" y2="293" stroke="#f2efe6" stroke-width="4" stroke-linecap="round" opacity="0.85"/><line x1="1170" y1="319" x2="1242" y2="319" stroke="#f2efe6" stroke-width="4" stroke-linecap="round" opacity="0.85"/><g transform="translate(900 1027) scale(-4 4)"><ellipse cx="0" cy="2" rx="40" ry="9" fill="#0b1018" opacity="0.45"/><path d="M 21.226 -145.485 L -9.333 -130.581 L -25.333 -102.868" fill="none" stroke="#151b26" stroke-width="16.5" stroke-linecap="round" stroke-linejoin="round"/><path d="M 21.226 -145.485 L -9.333 -130.581 L -25.333 -102.868" fill="none" stroke="#b89031" stroke-width="15" stroke-linecap="round" stroke-linejoin="round"/><circle cx="-25.333" cy="-102.868" r="7.5" fill="#e6b48f" stroke="#151b26" stroke-width="0.75" stroke-linejoin="round"/><path d="M -4 -92 L -32.283 -58.294 L -73.629 -43.245" fill="none" stroke="#151b26" stroke-width="22.5" stroke-linecap="round" stroke-linejoin="round"/><path d="M -4 -92 L -32.283 -58.294 L -73.629 -43.245" fill="none" stroke="#344a6e" stroke-width="21" stroke-linecap="round" stroke-linejoin="round"/><path d="M 4 -92 L 32.283 -58.294 L 39.923 -14.963" fill="none" stroke="#151b26" stroke-width="23.5" stroke-linecap="round" stroke-linejoin="round"/><path d="M 4 -92 L 32.283 -58.294 L 39.923 -14.963" fill="none" stroke="#3f5a86" stroke-width="22" stroke-linecap="round" stroke-linejoin="round"/><ellipse cx="-66.629" cy="-41.245" rx="13" ry="7" fill="#2a2526" stroke="#151b26" stroke-width="0.75" stroke-linejoin="round"/><ellipse cx="46.923" cy="-12.963" rx="13" ry="7" fill="#2a2526" stroke="#151b26" stroke-width="0.75" stroke-linejoin="round"/><path d="M 0 -92 L 23.226 -149.485" fill="none" stroke="#151b26" stroke-width="47.5" stroke-linecap="round"/><path d="M 0 -92 L 23.226 -149.485" fill="none" stroke="#e0b03c" stroke-width="46" stroke-linecap="round"/><circle cx="38.464" cy="-177.301" r="22" fill="#e6b48f" stroke="#151b26" stroke-width="0.75" stroke-linejoin="round"/><path d="M 16.464 -173.301 Q 12.464 -201.301 38.464 -201.301 Q 58.464 -201.301 60.464 -185.301 Q 44.464 -191.301 34.464 -183.301 Q 26.464 -169.301 16.464 -173.301 Z" fill="#4a3426" stroke="#151b26" stroke-width="0.75" stroke-linejoin="round"/><circle cx="59.464" cy="-174.301" r="4.2" fill="#e6b48f" stroke="#151b26" stroke-width="0.75" stroke-linejoin="round"/><path d="M 28.464 -175.301 Q 26.464 -153.301 42.464 -149.301 Q 58.464 -149.301 60.464 -165.301 Q 50.464 -159.301 40.464 -163.301 Q 34.464 -167.301 28.464 -175.301 Z" fill="#4a3426" stroke="#151b26" stroke-width="0.75" stroke-linejoin="round"/><circle cx="48.464" cy="-180.301" r="3" fill="#151b26"/><ellipse cx="52.464" cy="-165.301" rx="4" ry="5" fill="#151b26"/><path d="M 17.464 -183.301 Q 18.464 -214.301 40.464 -214.301 Q 60.464 -212.301 60.464 -183.301 Z" fill="#d7263d" stroke="#151b26" stroke-width="0.75" stroke-linejoin="round"/><rect x="15.464" y="-190.301" width="47" height="11" rx="4" fill="#a51c2e" stroke="#151b26" stroke-width="0.75" stroke-linejoin="round"/><circle cx="39.464" cy="-218.301" r="7" fill="#d7263d" stroke="#151b26" stroke-width="0.75" stroke-linejoin="round"/><path d="M 25.226 -145.485 L 57.175 -133.857 L 84.888 -117.857" fill="none" stroke="#151b26" stroke-width="17.5" stroke-linecap="round" stroke-linejoin="round"/><path d="M 25.226 -145.485 L 57.175 -133.857 L 84.888 -117.857" fill="none" stroke="#e0b03c" stroke-width="16" stroke-linecap="round" stroke-linejoin="round"/><circle cx="84.888" cy="-117.857" r="8" fill="#e6b48f" stroke="#151b26" stroke-width="0.75" stroke-linejoin="round"/><polygon points="84.888,-117.857 552.954,318.622 696.923,69.261" fill="#fff5c8" opacity="0.3"/><rect x="78.888" y="-127.857" width="12" height="20" rx="3" fill="#22252c" stroke="#151b26" stroke-width="0.75" stroke-linejoin="round"/></g><polygon points="1194,712 1199.166,729.528 1215.213,720.787 1206.472,736.834 1224,742 1206.472,747.166 1215.213,763.213 1199.166,754.472 1194,772 1188.834,754.472 1172.787,763.213 1181.528,747.166 1164,742 1181.528,736.834 1172.787,720.787 1188.834,729.528" fill="#ffe066" stroke="#151b26" stroke-width="2.5" stroke-linejoin="round"/><g transform="translate(330 850) scale(1.1 1.1)"><ellipse cx="0" cy="3" rx="120" ry="15" fill="#0b1018" opacity="0.45"/><g transform="translate(0 -80)"><g transform="rotate(46 -88 -112)"><path d="M -88 -112 Q -168 -152 -230 -124" fill="none" stroke="#151b26" stroke-width="51.818" stroke-linecap="round"/><path d="M -88 -112 Q -168 -152 -230 -124" fill="none" stroke="#bdb8b2" stroke-width="46" stroke-linecap="round"/><path d="M -88 -112 Q -168 -152 -230 -124" fill="none" stroke="#35322f" stroke-width="46" stroke-dasharray="16.56 16.56" stroke-dashoffset="-23"/><circle cx="-230" cy="-124" r="23" fill="#35322f" stroke="#151b26" stroke-width="2.909" stroke-linejoin="round"/></g><path d="M -44 -86 L -92.852 -27.781" fill="none" stroke="#151b26" stroke-width="33.818" stroke-linecap="round" stroke-linejoin="round"/><path d="M -44 -86 L -92.852 -27.781" fill="none" stroke="#827d78" stroke-width="28" stroke-linecap="round" stroke-linejoin="round"/><ellipse cx="-90.423" cy="-24.716" rx="17.36" ry="10.64" fill="#35322f" stroke="#151b26" stroke-width="2.909" stroke-linejoin="round"/><g transform="rotate(-22 -52 -84)"><path d="M 64 -86 L 104.274 -150.452" fill="none" stroke="#151b26" stroke-width="29.818" stroke-linecap="round" stroke-linejoin="round"/><path d="M 64 -86 L 104.274 -150.452" fill="none" stroke="#827d78" stroke-width="24" stroke-linecap="round" stroke-linejoin="round"/><ellipse cx="111.394" cy="-153.844" rx="14.88" ry="9.12" fill="#35322f" stroke="#151b26" stroke-width="2.909" stroke-linejoin="round"/><polygon points="117,-104 96.793,-95.108 111.274,-83.03 87.319,-78.195 94.655,-64.113 69.296,-63.808 68.771,-49.1 44.491,-53.355 36.155,-39.461 15.331,-47.86 0,-36.14 -15.331,-47.86 -36.155,-39.461 -44.491,-53.355 -68.771,-49.1 -69.296,-63.808 -94.655,-64.113 -87.319,-78.195 -111.274,-83.03 -96.793,-95.108 -117,-104 -96.793,-112.892 -111.274,-124.97 -87.319,-129.805 -94.655,-143.887 -69.296,-144.192 -68.771,-158.9 -44.491,-154.645 -36.155,-168.539 -15.331,-160.14 0,-171.86 15.331,-160.14 36.155,-168.539 44.491,-154.645 68.771,-158.9 69.296,-144.192 94.655,-143.887 87.319,-129.805 111.274,-124.97 96.793,-112.892" fill="#a39e9a" stroke="#151b26" stroke-width="2.909" stroke-linejoin="round"/><ellipse cx="0" cy="-104" rx="100" ry="58" fill="#a39e9a" stroke="#151b26" stroke-width="2.909" stroke-linejoin="round"/><path d="M -100 -104 A 100 58 0 0 0 100 -104 Q 0 -80 -100 -104 Z" fill="#827d78"/><ellipse cx="0" cy="-104" rx="100" ry="58" fill="none" stroke="#151b26" stroke-width="2.909" stroke-linejoin="round"/><ellipse cx="66" cy="-92" rx="24" ry="24" fill="#efe8d2"/></g><path d="M -52 -84 L -7.328 -22.515" fill="none" stroke="#151b26" stroke-width="35.818" stroke-linecap="round" stroke-linejoin="round"/><path d="M -52 -84 L -7.328 -22.515" fill="none" stroke="#a39e9a" stroke-width="30" stroke-linecap="round" stroke-linejoin="round"/><ellipse cx="0.023" cy="-19.279" rx="18.6" ry="11.4" fill="#35322f" stroke="#151b26" stroke-width="2.909" stroke-linejoin="round"/><g transform="rotate(-22 -52 -84)"><path d="M 56 -84 L 129.742 -102.386" fill="none" stroke="#151b26" stroke-width="31.818" stroke-linecap="round" stroke-linejoin="round"/><path d="M 56 -84 L 129.742 -102.386" fill="none" stroke="#a39e9a" stroke-width="26" stroke-linecap="round" stroke-linejoin="round"/><ellipse cx="138.624" cy="-103.354" rx="16.12" ry="9.88" fill="#35322f" stroke="#151b26" stroke-width="2.909" stroke-linejoin="round"/><g transform="rotate(12 84 -128)"><g opacity="0.28" transform="translate(-36 10) rotate(-14 84 -128)"><g transform="translate(86 -184) rotate(-24) scale(1)"><path d="M -13 8 Q -7 -30 1 -31 Q 9 -30 13 8 Z" fill="#827d78" stroke="#151b26" stroke-width="2.909" stroke-linejoin="round"/><path d="M -6 5 Q -2 -17 1 -18 Q 5 -17 6 5 Z" fill="#35322f"/></g><circle cx="106" cy="-148" r="44" fill="#a39e9a" stroke="#151b26" stroke-width="2.909" stroke-linejoin="round"/><g transform="translate(116 -190) rotate(10) scale(1)"><path d="M -13 8 Q -7 -30 1 -31 Q 9 -30 13 8 Z" fill="#a39e9a" stroke="#151b26" stroke-width="2.909" stroke-linejoin="round"/><path d="M -6 5 Q -2 -17 1 -18 Q 5 -17 6 5 Z" fill="#35322f"/></g><ellipse cx="122" cy="-168" rx="30" ry="9" fill="#efe8d2" transform="rotate(-14 122 -168)"/><ellipse cx="124" cy="-150" rx="32" ry="15" fill="#35322f" transform="rotate(-8 124 -150)"/><ellipse cx="142" cy="-128" rx="33" ry="19" fill="#efe8d2" stroke="#151b26" stroke-width="2.909" stroke-linejoin="round" transform="rotate(-6 142 -128)"/><ellipse cx="173" cy="-134" rx="9" ry="7" fill="#35322f" stroke="#151b26" stroke-width="2.909" stroke-linejoin="round"/><circle cx="128" cy="-154" r="13" fill="#ffffff" stroke="#151b26" stroke-width="2.909" stroke-linejoin="round"/><circle cx="131" cy="-154" r="5.5" fill="#141313"/><ellipse cx="156" cy="-112" rx="6" ry="7" fill="#35322f" stroke="#151b26" stroke-width="2.909" stroke-linejoin="round"/></g><g opacity="0.28" transform="translate(30 -8) rotate(12 84 -128)"><g transform="translate(86 -184) rotate(-24) scale(1)"><path d="M -13 8 Q -7 -30 1 -31 Q 9 -30 13 8 Z" fill="#827d78" stroke="#151b26" stroke-width="2.909" stroke-linejoin="round"/><path d="M -6 5 Q -2 -17 1 -18 Q 5 -17 6 5 Z" fill="#35322f"/></g><circle cx="106" cy="-148" r="44" fill="#a39e9a" stroke="#151b26" stroke-width="2.909" stroke-linejoin="round"/><g transform="translate(116 -190) rotate(10) scale(1)"><path d="M -13 8 Q -7 -30 1 -31 Q 9 -30 13 8 Z" fill="#a39e9a" stroke="#151b26" stroke-width="2.909" stroke-linejoin="round"/><path d="M -6 5 Q -2 -17 1 -18 Q 5 -17 6 5 Z" fill="#35322f"/></g><ellipse cx="122" cy="-168" rx="30" ry="9" fill="#efe8d2" transform="rotate(-14 122 -168)"/><ellipse cx="124" cy="-150" rx="32" ry="15" fill="#35322f" transform="rotate(-8 124 -150)"/><ellipse cx="142" cy="-128" rx="33" ry="19" fill="#efe8d2" stroke="#151b26" stroke-width="2.909" stroke-linejoin="round" transform="rotate(-6 142 -128)"/><ellipse cx="173" cy="-134" rx="9" ry="7" fill="#35322f" stroke="#151b26" stroke-width="2.909" stroke-linejoin="round"/><circle cx="128" cy="-154" r="13" fill="#ffffff" stroke="#151b26" stroke-width="2.909" stroke-linejoin="round"/><circle cx="131" cy="-154" r="5.5" fill="#141313"/><ellipse cx="156" cy="-112" rx="6" ry="7" fill="#35322f" stroke="#151b26" stroke-width="2.909" stroke-linejoin="round"/></g><g transform="translate(86 -184) rotate(-24) scale(1)"><path d="M -13 8 Q -7 -30 1 -31 Q 9 -30 13 8 Z" fill="#827d78" stroke="#151b26" stroke-width="2.909" stroke-linejoin="round"/><path d="M -6 5 Q -2 -17 1 -18 Q 5 -17 6 5 Z" fill="#35322f"/></g><circle cx="106" cy="-148" r="44" fill="#a39e9a" stroke="#151b26" stroke-width="2.909" stroke-linejoin="round"/><g transform="translate(116 -190) rotate(10) scale(1)"><path d="M -13 8 Q -7 -30 1 -31 Q 9 -30 13 8 Z" fill="#a39e9a" stroke="#151b26" stroke-width="2.909" stroke-linejoin="round"/><path d="M -6 5 Q -2 -17 1 -18 Q 5 -17 6 5 Z" fill="#35322f"/></g><ellipse cx="122" cy="-168" rx="30" ry="9" fill="#efe8d2" transform="rotate(-14 122 -168)"/><ellipse cx="124" cy="-150" rx="32" ry="15" fill="#35322f" transform="rotate(-8 124 -150)"/><ellipse cx="142" cy="-128" rx="33" ry="19" fill="#efe8d2" stroke="#151b26" stroke-width="2.909" stroke-linejoin="round" transform="rotate(-6 142 -128)"/><ellipse cx="173" cy="-134" rx="9" ry="7" fill="#35322f" stroke="#151b26" stroke-width="2.909" stroke-linejoin="round"/><circle cx="128" cy="-154" r="13" fill="#ffffff" stroke="#151b26" stroke-width="2.909" stroke-linejoin="round"/><circle cx="131" cy="-154" r="5.5" fill="#141313"/><ellipse cx="156" cy="-112" rx="6" ry="7" fill="#35322f" stroke="#151b26" stroke-width="2.909" stroke-linejoin="round"/></g></g></g></g><line x1="361.367" y1="534.372" x2="341.671" y2="530.899" stroke="#f2efe6" stroke-width="5" stroke-linecap="round"/><line x1="377.809" y1="496.256" x2="361.766" y2="484.313" stroke="#f2efe6" stroke-width="5" stroke-linecap="round"/><line x1="409.608" y1="469.573" x2="400.632" y2="451.7" stroke="#f2efe6" stroke-width="5" stroke-linecap="round"/><line x1="450" y1="460" x2="450" y2="440" stroke="#f2efe6" stroke-width="5" stroke-linecap="round"/><line x1="490.392" y1="469.573" x2="499.368" y2="451.7" stroke="#f2efe6" stroke-width="5" stroke-linecap="round"/><line x1="522.191" y1="496.256" x2="538.234" y2="484.313" stroke="#f2efe6" stroke-width="5" stroke-linecap="round"/><line x1="538.633" y1="534.372" x2="558.329" y2="530.899" stroke="#f2efe6" stroke-width="5" stroke-linecap="round"/><g opacity="0.95"><path d="M 480 600 Q 500 450 440 400" fill="none" stroke="#f2efe6" stroke-width="5" stroke-linecap="round" stroke-dasharray="4 12"/><polygon points="440,400 455.523,403.877 446.613,414.57" fill="#f2efe6"/></g><g transform="translate(420 330) rotate(-28)"><rect x="-30" y="-38" width="60" height="76" rx="12" fill="#f6eef2" stroke="#151b26" stroke-width="3" stroke-linejoin="round"/><rect x="-30" y="-6" width="60" height="10" fill="#f2b8c8"/></g><path d="M 455.996 287.102 A 56 56 0 0 1 468.497 358" fill="none" stroke="#f2efe6" stroke-width="5" stroke-linecap="round" opacity="0.9"/><path d="M 466.281 274.845 A 72 72 0 0 1 482.354 366" fill="none" stroke="#f2efe6" stroke-width="5" stroke-linecap="round" opacity="0.9"/><path d="M 476.565 262.588 A 88 88 0 0 1 496.21 374" fill="none" stroke="#f2efe6" stroke-width="5" stroke-linecap="round" opacity="0.9"/><path d="M 371.503 358 A 56 56 0 0 1 384.004 287.102" fill="none" stroke="#f2efe6" stroke-width="5" stroke-linecap="round" opacity="0.9"/><path d="M 357.646 366 A 72 72 0 0 1 373.719 274.845" fill="none" stroke="#f2efe6" stroke-width="5" stroke-linecap="round" opacity="0.9"/><path d="M 343.79 374 A 88 88 0 0 1 363.435 262.588" fill="none" stroke="#f2efe6" stroke-width="5" stroke-linecap="round" opacity="0.9"/><rect x="339" y="251" width="22" height="18" rx="6" fill="#ffffff" transform="rotate(20 350 260)" stroke="#151b26" stroke-width="2.5" stroke-linejoin="round"/><rect x="489" y="281" width="22" height="18" rx="6" fill="#ffffff" transform="rotate(-30 500 290)" stroke="#151b26" stroke-width="2.5" stroke-linejoin="round"/><rect x="459" y="211" width="22" height="18" rx="6" fill="#ffffff" transform="rotate(50 470 220)" stroke="#151b26" stroke-width="2.5" stroke-linejoin="round"/><rect x="319" y="351" width="22" height="18" rx="6" fill="#ffffff" transform="rotate(10 330 360)" stroke="#151b26" stroke-width="2.5" stroke-linejoin="round"/><rect x="519" y="371" width="22" height="18" rx="6" fill="#ffffff" transform="rotate(-12 530 380)" stroke="#151b26" stroke-width="2.5" stroke-linejoin="round"/></svg>