<svg xmlns="http://www.w3.org/2000/svg" viewBox="0 0 1600 900" width="1600" height="900"><title>14. Home at last</title><defs><linearGradient id="p14-sky" x1="0" y1="0" x2="0" y2="1"><stop offset="0" stop-color="#191d48"/><stop offset="1" stop-color="#3f4384"/></linearGradient><radialGradient id="p14-moon"><stop offset="0" stop-color="#f4edd2" stop-opacity="0.25"/><stop offset="1" stop-color="#f4edd2" stop-opacity="0"/></radialGradient></defs><rect x="0" y="0" width="1600" height="900" fill="url(#p14-sky)"/><circle cx="1350" cy="140" r="62" fill="#f4edd2"/><circle cx="1350" cy="140" r="140" fill="url(#p14-moon)"/><circle cx="759.313" cy="302.437" r="2.066" fill="#e6e4ff" opacity="0.8"/><circle cx="228.161" cy="4.996" r="1.687" fill="#e6e4ff" opacity="0.8"/><circle cx="438.477" cy="372.76" r="2.098" fill="#e6e4ff" opacity="0.8"/><circle cx="962.331" cy="256.767" r="2.06" fill="#e6e4ff" opacity="0.8"/><circle cx="232.484" cy="202.425" r="1.411" fill="#e6e4ff" opacity="0.8"/><circle cx="1449.557" cy="27.059" r="2.264" fill="#e6e4ff" opacity="0.8"/><circle cx="119.375" cy="315.995" r="1.638" fill="#e6e4ff" opacity="0.8"/><circle cx="647.383" cy="387.506" r="1.224" fill="#e6e4ff" opacity="0.8"/><circle cx="97.256" cy="420.915" r="1.862" fill="#e6e4ff" opacity="0.8"/><circle cx="145.565" cy="454.082" r="2.431" fill="#e6e4ff" opacity="0.8"/><circle cx="180.044" cy="194.675" r="1.376" fill="#e6e4ff" opacity="0.8"/><circle cx="500.065" cy="285.868" r="1.413" fill="#e6e4ff" opacity="0.8"/><circle cx="1114.935" cy="23.623" r="1.423" fill="#e6e4ff" opacity="0.8"/><circle cx="1305.116" cy="184.239" r="1.744" fill="#e6e4ff" opacity="0.8"/><circle cx="953.554" cy="219.313" r="1.7" fill="#e6e4ff" opacity="0.8"/><circle cx="48.791" cy="334.111" r="2.458" fill="#e6e4ff" opacity="0.8"/><circle cx="1562.086" cy="305.254" r="1.663" fill="#e6e4ff" opacity="0.8"/><circle cx="581.006" cy="317.453" r="2.076" fill="#e6e4ff" opacity="0.8"/><circle cx="182.132" cy="108.087" r="1.672" fill="#e6e4ff" opacity="0.8"/><circle cx="818.161" cy="372.649" r="1.85" fill="#e6e4ff" opacity="0.8"/><circle cx="45.029" cy="378.381" r="1.759" fill="#e6e4ff" opacity="0.8"/><circle cx="830.396" cy="102.197" r="1.755" fill="#e6e4ff" opacity="0.8"/><circle cx="621.194" cy="355.083" r="1.333" fill="#e6e4ff" opacity="0.8"/><circle cx="879.954" cy="81.903" r="2.105" fill="#e6e4ff" opacity="0.8"/><circle cx="58.954" cy="127.212" r="1.647" fill="#e6e4ff" opacity="0.8"/><circle cx="1019.087" cy="23.947" r="1.797" fill="#e6e4ff" opacity="0.8"/><circle cx="334.069" cy="129.672" r="1.819" fill="#e6e4ff" opacity="0.8"/><circle cx="1533.997" cy="221.271" r="2.443" fill="#e6e4ff" opacity="0.8"/><circle cx="268.101" cy="425.155" r="1.673" fill="#e6e4ff" opacity="0.8"/><circle cx="302.772" cy="344.323" r="2.386" fill="#e6e4ff" opacity="0.8"/><circle cx="10.679" cy="123.397" r="2.202" fill="#e6e4ff" opacity="0.8"/><circle cx="546.864" cy="111.13" r="1.211" fill="#e6e4ff" opacity="0.8"/><circle cx="64.037" cy="284.775" r="2.479" fill="#e6e4ff" opacity="0.8"/><circle cx="1597.592" cy="231.656" r="1.231" fill="#e6e4ff" opacity="0.8"/><circle cx="515.93" cy="362.205" r="2.282" fill="#e6e4ff" opacity="0.8"/><circle cx="1023.058" cy="105.577" r="1.885" fill="#e6e4ff" opacity="0.8"/><circle cx="763.822" cy="288.422" r="1.541" fill="#e6e4ff" opacity="0.8"/><circle cx="1514.684" cy="411.386" r="1.411" fill="#e6e4ff" opacity="0.8"/><circle cx="466.114" cy="401.658" r="1.562" fill="#e6e4ff" opacity="0.8"/><circle cx="1510.246" cy="236.979" r="2.105" fill="#e6e4ff" opacity="0.8"/><circle cx="1127.513" cy="98.472" r="1.571" fill="#e6e4ff" opacity="0.8"/><circle cx="407.907" cy="314.316" r="2.102" fill="#e6e4ff" opacity="0.8"/><circle cx="210.771" cy="407.761" r="1.746" fill="#e6e4ff" opacity="0.8"/><circle cx="385.97" cy="200.228" r="2.473" fill="#e6e4ff" opacity="0.8"/><circle cx="895.891" cy="287.38" r="2.396" fill="#e6e4ff" opacity="0.8"/><circle cx="1539.18" cy="349.8" r="1.743" fill="#e6e4ff" opacity="0.8"/><circle cx="941.497" cy="414.442" r="2.226" fill="#e6e4ff" opacity="0.8"/><circle cx="928.262" cy="159.84" r="1.679" fill="#e6e4ff" opacity="0.8"/><circle cx="1177.337" cy="259.131" r="1.222" fill="#e6e4ff" opacity="0.8"/><circle cx="1136.21" cy="415.751" r="2.237" fill="#e6e4ff" opacity="0.8"/><circle cx="1435.963" cy="418.835" r="1.895" fill="#e6e4ff" opacity="0.8"/><circle cx="1262.586" cy="174.557" r="1.328" fill="#e6e4ff" opacity="0.8"/><circle cx="565.071" cy="143.572" r="2.414" fill="#e6e4ff" opacity="0.8"/><circle cx="1102.58" cy="249.142" r="2.009" fill="#e6e4ff" opacity="0.8"/><circle cx="199.553" cy="245.757" r="2.111" fill="#e6e4ff" opacity="0.8"/><circle cx="630.651" cy="113.049" r="1.729" fill="#e6e4ff" opacity="0.8"/><circle cx="517.749" cy="315.229" r="1.384" fill="#e6e4ff" opacity="0.8"/><circle cx="144.86" cy="143.74" r="2.105" fill="#e6e4ff" opacity="0.8"/><circle cx="1215.403" cy="303.321" r="2.415" fill="#e6e4ff" opacity="0.8"/><circle cx="584.967" cy="13.681" r="1.834" fill="#e6e4ff" opacity="0.8"/><path d="M 0 600 Q 70 540 140 600 Q 210 560 280 600 Q 350 540 420 600 Q 490 560 560 600 Q 630 540 700 600 Q 770 560 840 600 Q 910 540 980 600 Q 1050 560 1120 600 Q 1190 540 1260 600 Q 1330 560 1400 600 Q 1470 540 1540 600 Q 1610 560 1680 600 L 1600 660 L 0 660 Z" fill="#18323a"/><rect x="0" y="640" width="1600" height="260" fill="#2b474c"/><path d="M 420 900 Q 700 760 1100 760 L 1600 760 L 1600 820 L 1100 820 Q 760 830 560 900 Z" fill="#36463f"/><ellipse cx="326" cy="892" rx="120" ry="33.6" fill="#0b1018" opacity="0.45"/><path d="M 203.6 892 Q 237.2 866 242 818 L 245.84 -70 L 334.16 -70 L 338 818 Q 347.6 866 381.2 892 Z" fill="#4a3a33" stroke="#151b26" stroke-width="3.6" stroke-linejoin="round"/><path d="M 263.12 854 q 4.8 -144 0 -264" fill="none" stroke="#3a2d2a" stroke-width="3.6" stroke-linecap="round"/><path d="M 285.2 854 q 4.8 -144 0 -264" fill="none" stroke="#3a2d2a" stroke-width="3.6" stroke-linecap="round"/><path d="M 309.2 854 q 4.8 -144 0 -264" fill="none" stroke="#3a2d2a" stroke-width="3.6" stroke-linecap="round"/><path d="M 324.56 854 q 4.8 -144 0 -264" fill="none" stroke="#3a2d2a" stroke-width="3.6" stroke-linecap="round"/><ellipse cx="292.4" cy="338" rx="32.4" ry="43.2" fill="#342924" stroke="#151b26" stroke-width="3.6" stroke-linejoin="round"/><ellipse cx="294.8" cy="340.4" rx="24" ry="34.8" fill="#100b0e"/><circle cx="290" cy="-118" r="204" fill="#1f3f47"/><circle cx="134" cy="-34" r="156" fill="#1f3f47"/><circle cx="446" cy="-46" r="162" fill="#264c52"/><circle cx="230" cy="-262" r="156" fill="#1f3f47"/><circle cx="386" cy="-238" r="144" fill="#264c52"/><ellipse cx="1290" cy="880" rx="390" ry="48" fill="#0b1018" opacity="0.45"/><polygon points="942,773.5 42,646 42,916" fill="#fff5c8" opacity="0.22"/><path d="M 1635 835 L 1635 752.5 L 1582.5 667 L 1155 667 L 1050 737.5 L 945 752.5 L 937.5 835 Z" fill="#2f8f8a" stroke="#151b26" stroke-width="4.5" stroke-linejoin="round"/><path d="M 1567.5 737.5 L 1552.5 682 L 1402.5 682 L 1402.5 737.5 Z" fill="#9fc4d4" stroke="#151b26" stroke-width="4.5" stroke-linejoin="round"/><path d="M 1380 737.5 L 1380 682 L 1230 682 L 1230 737.5 Z" fill="#9fc4d4" stroke="#151b26" stroke-width="4.5" stroke-linejoin="round"/><path d="M 1207.5 737.5 L 1207.5 682 L 1162.5 682 L 1080 737.5 Z" fill="#9fc4d4" stroke="#151b26" stroke-width="4.5" stroke-linejoin="round"/><path d="M 1627.5 805 L 1627.5 763 L 1065 763 L 1065 805 Z" fill="#9a6b3c" stroke="#151b26" stroke-width="4.5" stroke-linejoin="round"/><ellipse cx="1507.5" cy="835" rx="54" ry="54" fill="#1c1f26" stroke="#151b26" stroke-width="4.5" stroke-linejoin="round"/><ellipse cx="1507.5" cy="835" rx="22.5" ry="22.5" fill="#9aa0a8" stroke="#151b26" stroke-width="4.5" stroke-linejoin="round"/><ellipse cx="1072.5" cy="835" rx="54" ry="54" fill="#1c1f26" stroke="#151b26" stroke-width="4.5" stroke-linejoin="round"/><ellipse cx="1072.5" cy="835" rx="22.5" ry="22.5" fill="#9aa0a8" stroke="#151b26" stroke-width="4.5" stroke-linejoin="round"/><ellipse cx="945" cy="781" rx="13.5" ry="18" fill="#fff4c4" stroke="#151b26" stroke-width="4.5" stroke-linejoin="round"/><rect x="1644" y="767.5" width="9" height="30" fill="#f0a24a" stroke="#151b26" stroke-width="4.5" stroke-linejoin="round"/><g transform="translate(1095 878) scale(1.45 1.45)"><ellipse cx="0" cy="2" rx="34" ry="8" fill="#0b1018" opacity="0.45"/><path d="M -11 -88 L -15.599 -44.241 L -15.599 -0.241" fill="none" stroke="#151b26" stroke-width="25.138" stroke-linecap="round" stroke-linejoin="round"/><path d="M -11 -88 L -15.599 -44.241 L -15.599 -0.241" fill="none" stroke="#3f5a86" stroke-width="21" stroke-linecap="round" stroke-linejoin="round"/><ellipse cx="-19.599" cy="1.759" rx="12" ry="7" fill="#2a2526" stroke="#151b26" stroke-width="2.069" stroke-linejoin="round"/><path d="M 11 -88 L 15.599 -44.241 L 15.599 -0.241" fill="none" stroke="#151b26" stroke-width="25.138" stroke-linecap="round" stroke-linejoin="round"/><path d="M 11 -88 L 15.599 -44.241 L 15.599 -0.241" fill="none" stroke="#3f5a86" stroke-width="21" stroke-linecap="round" stroke-linejoin="round"/><ellipse cx="19.599" cy="1.759" rx="12" ry="7" fill="#2a2526" stroke="#151b26" stroke-width="2.069" stroke-linejoin="round"/><path d="M 0 -88 L 0 -146" fill="none" stroke="#151b26" stroke-width="56.138" stroke-linecap="round"/><path d="M 0 -88 L 0 -146" fill="none" stroke="#9b8fc9" stroke-width="52" stroke-linecap="round"/><path d="M -24 -144 L -41 -114.555 L -64.64 -133.025" fill="none" stroke="#151b26" stroke-width="19.138" stroke-linecap="round" stroke-linejoin="round"/><path d="M -24 -144 L -41 -114.555 L -64.64 -133.025" fill="none" stroke="#9b8fc9" stroke-width="15" stroke-linecap="round" stroke-linejoin="round"/><circle cx="-64.64" cy="-133.025" r="7.5" fill="#e6b48f" stroke="#151b26" stroke-width="2.069" stroke-linejoin="round"/><path d="M 24 -144 L 41 -114.555 L 64.64 -133.025" fill="none" stroke="#151b26" stroke-width="19.138" stroke-linecap="round" stroke-linejoin="round"/><path d="M 24 -144 L 41 -114.555 L 64.64 -133.025" fill="none" stroke="#9b8fc9" stroke-width="15" stroke-linecap="round" stroke-linejoin="round"/><circle cx="64.64" cy="-133.025" r="7.5" fill="#e6b48f" stroke="#151b26" stroke-width="2.069" stroke-linejoin="round"/><circle cx="0" cy="-178" r="23" fill="#e6b48f" stroke="#151b26" stroke-width="2.069" stroke-linejoin="round"/><path d="M -23 -180 Q -22 -206 0 -204 Q 22 -206 23 -180 Q 8 -192 -23 -180 Z" fill="#2d2a3a" stroke="#151b26" stroke-width="2.069" stroke-linejoin="round"/><circle cx="-8" cy="-180" r="3" fill="#151b26"/><circle cx="8" cy="-180" r="3" fill="#151b26"/><line x1="-6" y1="-168" x2="6" y2="-168" stroke="#151b26" stroke-width="2.4" stroke-linecap="round"/><line x1="-13" y1="-190" x2="-4" y2="-192" stroke="#151b26" stroke-width="2.4" stroke-linecap="round"/><line x1="4" y1="-192" x2="13" y2="-190" stroke="#151b26" stroke-width="2.4" stroke-linecap="round"/></g><g transform="translate(700 860)"><rect x="-90" y="-110" width="180" height="110" rx="16" fill="#d9d3c2" stroke="#151b26" stroke-width="3" stroke-linejoin="round"/><rect x="-90" y="-110" width="180" height="30" rx="16" fill="#a8a191" stroke="#151b26" stroke-width="3" stroke-linejoin="round"/><rect x="-30" y="-132" width="60" height="24" rx="10" fill="#a8a191" stroke="#151b26" stroke-width="3" stroke-linejoin="round"/><g transform="translate(30 -45) scale(1.4 1.4)"><path d="M 0 8 Q -10 8 -10 -2 Q -10 -10 0 -9 Q 10 -10 10 -2 Q 10 8 0 8 Z" fill="#35322f"/><circle cx="-10" cy="-16" r="4.5" fill="#35322f"/><circle cx="-3" cy="-21" r="4.5" fill="#35322f"/><circle cx="5" cy="-21" r="4.5" fill="#35322f"/><circle cx="12" cy="-16" r="4.5" fill="#35322f"/></g><rect x="-90" y="-100" width="14" height="92" fill="#1c1f26"/><g transform="translate(-94 -102) rotate(-48)"><rect x="0" y="0" width="18" height="96" fill="#8a8f98" stroke="#151b26" stroke-width="3" stroke-linejoin="round"/><line x1="4" y1="12" x2="14" y2="12" stroke="#4a4f58" stroke-width="3" stroke-linecap="round"/><line x1="4" y1="26" x2="14" y2="26" stroke="#4a4f58" stroke-width="3" stroke-linecap="round"/><line x1="4" y1="40" x2="14" y2="40" stroke="#4a4f58" stroke-width="3" stroke-linecap="round"/><line x1="4" y1="54" x2="14" y2="54" stroke="#4a4f58" stroke-width="3" stroke-linecap="round"/><line x1="4" y1="68" x2="14" y2="68" stroke="#4a4f58" stroke-width="3" stroke-linecap="round"/><line x1="4" y1="82" x2="14" y2="82" stroke="#4a4f58" stroke-width="3" stroke-linecap="round"/></g></g><g transform="translate(890 872) scale(-1.55 1.55)"><ellipse cx="0" cy="2" rx="40" ry="9" fill="#0b1018" opacity="0.45"/><path d="M 19.205 -110.261 L 42.824 -134.718 L 53.768 -164.789" fill="none" stroke="#151b26" stroke-width="18.871" stroke-linecap="round" stroke-linejoin="round"/><path d="M 19.205 -110.261 L 42.824 -134.718 L 53.768 -164.789" fill="none" stroke="#b89031" stroke-width="15" stroke-linecap="round" stroke-linejoin="round"/><circle cx="53.768" cy="-164.789" r="7.5" fill="#e6b48f" stroke="#151b26" stroke-width="1.935" stroke-linejoin="round"/><g transform="translate(53.768 -190.789)"><rect x="-18" y="-32" width="36" height="64" rx="6" fill="#22252c" stroke="#151b26" stroke-width="1.935" stroke-linejoin="round"/><rect x="-14" y="-26" width="28" height="50" rx="3" fill="#cfe6f2"/><g transform="translate(0 -2) scale(0.2 0.2)"><circle cx="0" cy="0" r="50" fill="#a39e9a" stroke="#151b26" stroke-width="16" stroke-linejoin="round"/><ellipse cx="0" cy="12" rx="42" ry="34" fill="#efe8d2"/><ellipse cx="0" cy="-16" rx="10" ry="26" fill="#a39e9a"/><ellipse cx="-21" cy="-2" rx="18" ry="12" fill="#35322f" transform="rotate(-16 -21 -2)"/><ellipse cx="21" cy="-2" rx="18" ry="12" fill="#35322f" transform="rotate(16 21 -2)"/><ellipse cx="0" cy="24" rx="21" ry="15" fill="#efe8d2" stroke="#151b26" stroke-width="16" stroke-linejoin="round"/><ellipse cx="0" cy="15" rx="8.5" ry="6.5" fill="#35322f" stroke="#151b26" stroke-width="16" stroke-linejoin="round"/><circle cx="-21" cy="-2" r="5.5" fill="#141313"/><circle cx="-19.2" cy="-4" r="2" fill="#ffffff"/><circle cx="21" cy="-2" r="5.5" fill="#141313"/><circle cx="22.8" cy="-4" r="2" fill="#ffffff"/><path d="M -11 31 Q 3 39 14 27" fill="none" stroke="#151b26" stroke-width="16" stroke-linecap="round"/><path d="M -49 -20 Q -50 -76 0 -78 Q 50 -76 49 -20 Z" fill="#d7263d" stroke="#151b26" stroke-width="16" stroke-linejoin="round"/><path d="M -53 -26 Q 0 -46 53 -26 L 53 -12 Q 0 -32 -53 -12 Z" fill="#a51c2e" stroke="#151b26" stroke-width="16" stroke-linejoin="round"/><circle cx="0" cy="-84" r="12" fill="#d7263d" stroke="#151b26" stroke-width="16" stroke-linejoin="round"/><g transform="translate(-34 -60) rotate(-20)"><path d="M -15 8 Q -7 -36 1 -37 Q 9 -36 15 8 Z" fill="#a39e9a" stroke="#151b26" stroke-width="16" stroke-linejoin="round"/><path d="M -7 5 Q -2 -22 1 -23 Q 5 -22 7 5 Z" fill="#35322f"/></g><g transform="translate(34 -60) rotate(20)"><path d="M -15 8 Q -7 -36 1 -37 Q 9 -36 15 8 Z" fill="#a39e9a" stroke="#151b26" stroke-width="16" stroke-linejoin="round"/><path d="M -7 5 Q -2 -22 1 -23 Q 5 -22 7 5 Z" fill="#35322f"/></g></g></g><path d="M -4 -56 L -7.069 -12.107 L -51.042 -13.643" fill="none" stroke="#151b26" stroke-width="24.871" stroke-linecap="round" stroke-linejoin="round"/><path d="M -4 -56 L -7.069 -12.107 L -51.042 -13.643" fill="none" stroke="#344a6e" stroke-width="21" stroke-linecap="round" stroke-linejoin="round"/><path d="M 4 -56 L 47.973 -57.536 L 51.042 -13.643" fill="none" stroke="#151b26" stroke-width="25.871" stroke-linecap="round" stroke-linejoin="round"/><path d="M 4 -56 L 47.973 -57.536 L 51.042 -13.643" fill="none" stroke="#3f5a86" stroke-width="22" stroke-linecap="round" stroke-linejoin="round"/><ellipse cx="-44.042" cy="-11.643" rx="13" ry="7" fill="#2a2526" stroke="#151b26" stroke-width="1.935" stroke-linejoin="round"/><ellipse cx="58.042" cy="-11.643" rx="13" ry="7" fill="#2a2526" stroke="#151b26" stroke-width="1.935" stroke-linejoin="round"/><path d="M 0 -56 L 21.205 -114.261" fill="none" stroke="#151b26" stroke-width="49.871" stroke-linecap="round"/><path d="M 0 -56 L 21.205 -114.261" fill="none" stroke="#e0b03c" stroke-width="46" stroke-linecap="round"/><ellipse cx="11.466" cy="-134.452" rx="9" ry="16" fill="#4a3426" stroke="#151b26" stroke-width="1.935" stroke-linejoin="round" transform="rotate(24 11.466 -134.452)"/><circle cx="35.466" cy="-142.452" r="22" fill="#e6b48f" stroke="#151b26" stroke-width="1.935" stroke-linejoin="round"/><path d="M 13.466 -138.452 Q 9.466 -166.452 35.466 -166.452 Q 55.466 -166.452 57.466 -150.452 Q 41.466 -156.452 31.466 -148.452 Q 23.466 -134.452 13.466 -138.452 Z" fill="#4a3426" stroke="#151b26" stroke-width="1.935" stroke-linejoin="round"/><circle cx="56.466" cy="-139.452" r="4.2" fill="#e6b48f" stroke="#151b26" stroke-width="1.935" stroke-linejoin="round"/><circle cx="45.466" cy="-145.452" r="2.6" fill="#151b26"/><path d="M 43.466 -131.452 Q 48.466 -127.452 53.466 -132.452" fill="none" stroke="#151b26" stroke-width="2.4"/><path d="M 23.205 -110.261 L 53.764 -95.356 L 84.814 -87.615" fill="none" stroke="#151b26" stroke-width="19.871" stroke-linecap="round" stroke-linejoin="round"/><path d="M 23.205 -110.261 L 53.764 -95.356 L 84.814 -87.615" fill="none" stroke="#e0b03c" stroke-width="16" stroke-linecap="round" stroke-linejoin="round"/><circle cx="84.814" cy="-87.615" r="8" fill="#e6b48f" stroke="#151b26" stroke-width="1.935" stroke-linejoin="round"/></g><path d="M 515 810.622 A 70 70 0 0 1 585 689.378" fill="none" stroke="#f2efe6" stroke-width="4" stroke-linecap="round" opacity="0.9"/><path d="M 506 826.21 A 88 88 0 0 1 594 673.79" fill="none" stroke="#f2efe6" stroke-width="4" stroke-linecap="round" opacity="0.9"/><g transform="translate(520 790) rotate(-30) scale(-0.62 0.62)"><g transform="translate(0 -24)"><g transform="rotate(-6 -88 -112)"><path d="M -88 -112 Q -168 -152 -230 -124" fill="none" stroke="#151b26" stroke-width="56.323" stroke-linecap="round"/><path d="M -88 -112 Q -168 -152 -230 -124" fill="none" stroke="#bdb8b2" stroke-width="46" stroke-linecap="round"/><path d="M -88 -112 Q -168 -152 -230 -124" fill="none" stroke="#35322f" stroke-width="46" stroke-dasharray="16.56 16.56" stroke-dashoffset="-23"/><circle cx="-230" cy="-124" r="23" fill="#35322f" stroke="#151b26" stroke-width="5.161" stroke-linejoin="round"/></g><path d="M -44 -86 L -114.636 -48.442" fill="none" stroke="#151b26" stroke-width="38.323" stroke-linecap="round" stroke-linejoin="round"/><path d="M -44 -86 L -114.636 -48.442" fill="none" stroke="#827d78" stroke-width="28" stroke-linecap="round" stroke-linejoin="round"/><ellipse cx="-113.168" cy="-46.564" rx="17.36" ry="10.64" fill="#35322f" stroke="#151b26" stroke-width="5.161" stroke-linejoin="round"/><g transform="rotate(4 -52 -84)"><path d="M 64 -86 L 140.085 -61.279" fill="none" stroke="#151b26" stroke-width="34.323" stroke-linecap="round" stroke-linejoin="round"/><path d="M 64 -86 L 140.085 -61.279" fill="none" stroke="#827d78" stroke-width="24" stroke-linecap="round" stroke-linejoin="round"/><ellipse cx="148.889" cy="-60.043" rx="14.88" ry="9.12" fill="#35322f" stroke="#151b26" stroke-width="5.161" stroke-linejoin="round"/><ellipse cx="0" cy="-104" rx="100" ry="58" fill="#a39e9a" stroke="#151b26" stroke-width="5.161" stroke-linejoin="round"/><path d="M -100 -104 A 100 58 0 0 0 100 -104 Q 0 -80 -100 -104 Z" fill="#827d78"/><ellipse cx="0" cy="-104" rx="100" ry="58" fill="none" stroke="#151b26" stroke-width="5.161" stroke-linejoin="round"/><ellipse cx="66" cy="-92" rx="24" ry="24" fill="#efe8d2"/></g><path d="M -52 -84 L -105.53 -24.548" fill="none" stroke="#151b26" stroke-width="40.323" stroke-linecap="round" stroke-linejoin="round"/><path d="M -52 -84 L -105.53 -24.548" fill="none" stroke="#a39e9a" stroke-width="30" stroke-linecap="round" stroke-linejoin="round"/><ellipse cx="-103.207" cy="-21.576" rx="18.6" ry="11.4" fill="#35322f" stroke="#151b26" stroke-width="5.161" stroke-linejoin="round"/><g transform="rotate(4 -52 -84)"><path d="M 56 -84 L 119.041 -34.747" fill="none" stroke="#151b26" stroke-width="36.323" stroke-linecap="round" stroke-linejoin="round"/><path d="M 56 -84 L 119.041 -34.747" fill="none" stroke="#a39e9a" stroke-width="26" stroke-linecap="round" stroke-linejoin="round"/><ellipse cx="127.193" cy="-32.284" rx="16.12" ry="9.88" fill="#35322f" stroke="#151b26" stroke-width="5.161" stroke-linejoin="round"/><g transform="rotate(4 84 -128)"><circle cx="106" cy="-148" r="44" fill="#a39e9a" stroke="#151b26" stroke-width="5.161" stroke-linejoin="round"/><ellipse cx="122" cy="-168" rx="30" ry="9" fill="#efe8d2" transform="rotate(-14 122 -168)"/><ellipse cx="124" cy="-150" rx="32" ry="15" fill="#35322f" transform="rotate(-8 124 -150)"/><ellipse cx="142" cy="-128" rx="33" ry="19" fill="#efe8d2" stroke="#151b26" stroke-width="5.161" stroke-linejoin="round" transform="rotate(-6 142 -128)"/><ellipse cx="173" cy="-134" rx="9" ry="7" fill="#35322f" stroke="#151b26" stroke-width="5.161" stroke-linejoin="round"/><circle cx="128" cy="-152" r="6.5" fill="#141313"/><circle cx="130.5" cy="-154.5" r="2.3" fill="#ffffff"/><path d="M 140 -114 Q 154 -103 167 -117" fill="none" stroke="#151b26" stroke-width="5.677" stroke-linecap="round"/><path d="M 62 -160 Q 60 -222 110 -224 Q 160 -222 154 -160 Z" fill="#d7263d" stroke="#151b26" stroke-width="5.161" stroke-linejoin="round"/><path d="M 58 -168 Q 108 -186 158 -168 L 160 -150 Q 108 -170 56 -150 Z" fill="#a51c2e" stroke="#151b26" stroke-width="5.161" stroke-linejoin="round"/><circle cx="112" cy="-230" r="12" fill="#d7263d" stroke="#151b26" stroke-width="5.161" stroke-linejoin="round"/><g transform="translate(78 -200) rotate(-34) scale(0.8)"><path d="M -13 8 Q -7 -30 1 -31 Q 9 -30 13 8 Z" fill="#827d78" stroke="#151b26" stroke-width="5.161" stroke-linejoin="round"/><path d="M -6 5 Q -2 -17 1 -18 Q 5 -17 6 5 Z" fill="#35322f"/></g><g transform="translate(148 -204) rotate(30) scale(0.8)"><path d="M -13 8 Q -7 -30 1 -31 Q 9 -30 13 8 Z" fill="#a39e9a" stroke="#151b26" stroke-width="5.161" stroke-linejoin="round"/><path d="M -6 5 Q -2 -17 1 -18 Q 5 -17 6 5 Z" fill="#35322f"/></g></g></g></g></g><g opacity="0.95"><path d="M 400 770 Q 330 800 315 660 Q 300 520 300 400" fill="none" stroke="#f2efe6" stroke-width="5" stroke-linecap="round" stroke-dasharray="4 12"/><polygon points="300,400 307.829,416.208 292.171,416.208" fill="#f2efe6"/></g><g transform="translate(150 880) scale(1.4 1.4)"><ellipse cx="0" cy="0" rx="14" ry="6" fill="#5c7a4a" stroke="#151b26" stroke-width="1.143" stroke-linejoin="round"/><circle cx="13" cy="-1" r="4.5" fill="#5c7a4a" stroke="#151b26" stroke-width="1.143" stroke-linejoin="round"/><line x1="-4" y1="3" x2="-14" y2="12" stroke="#151b26" stroke-width="1.8" stroke-linecap="round"/><line x1="2" y1="4" x2="-2" y2="12" stroke="#151b26" stroke-width="1.8" stroke-linecap="round"/><line x1="-6" y1="-2" x2="-20" y2="10" stroke="#151b26" stroke-width="2" stroke-linecap="round"/><line x1="15" y1="-4" x2="26" y2="-14" stroke="#151b26" stroke-width="1.4" stroke-linecap="round"/><path d="M 30 -18.928 A 8 8 0 0 1 32.128 -6.858" fill="none" stroke="#f2efe6" stroke-width="2" stroke-linecap="round" opacity="0.9"/><path d="M 33.5 -24.99 A 15 15 0 0 1 37.491 -2.358" fill="none" stroke="#f2efe6" stroke-width="2" stroke-linecap="round" opacity="0.9"/></g><g transform="translate(1010 892) scale(-1.4 1.4)"><ellipse cx="0" cy="0" rx="14" ry="6" fill="#5c7a4a" stroke="#151b26" stroke-width="1.143" stroke-linejoin="round"/><circle cx="13" cy="-1" r="4.5" fill="#5c7a4a" stroke="#151b26" stroke-width="1.143" stroke-linejoin="round"/><line x1="-4" y1="3" x2="-14" y2="12" stroke="#151b26" stroke-width="1.8" stroke-linecap="round"/><line x1="2" y1="4" x2="-2" y2="12" stroke="#151b26" stroke-width="1.8" stroke-linecap="round"/><line x1="-6" y1="-2" x2="-20" y2="10" stroke="#151b26" stroke-width="2" stroke-linecap="round"/><line x1="15" y1="-4" x2="26" y2="-14" stroke="#151b26" stroke-width="1.4" stroke-linecap="round"/><path d="M 30 -18.928 A 8 8 0 0 1 32.128 -6.858" fill="none" stroke="#f2efe6" stroke-width="2" stroke-linecap="round" opacity="0.9"/><path d="M 33.5 -24.99 A 15 15 0 0 1 37.491 -2.358" fill="none" stroke="#f2efe6" stroke-width="2" stroke-linecap="round" opacity="0.9"/></g><g transform="translate(640 888) scale(1.4 1.4)"><ellipse cx="0" cy="0" rx="14" ry="6" fill="#5c7a4a" stroke="#151b26" stroke-width="1.143" stroke-linejoin="round"/><circle cx="13" cy="-1" r="4.5" fill="#5c7a4a" stroke="#151b26" stroke-width="1.143" stroke-linejoin="round"/><line x1="-4" y1="3" x2="-14" y2="12" stroke="#151b26" stroke-width="1.8" stroke-linecap="round"/><line x1="2" y1="4" x2="-2" y2="12" stroke="#151b26" stroke-width="1.8" stroke-linecap="round"/><line x1="-6" y1="-2" x2="-20" y2="10" stroke="#151b26" stroke-width="2" stroke-linecap="round"/><line x1="15" y1="-4" x2="26" y2="-14" stroke="#151b26" stroke-width="1.4" stroke-linecap="round"/><path d="M 30 -18.928 A 8 8 0 0 1 32.128 -6.858" fill="none" stroke="#f2efe6" stroke-width="2" stroke-linecap="round" opacity="0.9"/><path d="M 33.5 -24.99 A 15 15 0 0 1 37.491 -2.358" fill="none" stroke="#f2efe6" stroke-width="2" stroke-linecap="round" opacity="0.9"/></g></svg>